<?xml version="1.0" standalone="no"?>
<!DOCTYPE svg PUBLIC "-//W3C//DTD SVG 20010904//EN"
 "http://www.w3.org/TR/2001/REC-SVG-20010904/DTD/svg10.dtd">
<svg version="1.0" xmlns="http://www.w3.org/2000/svg"
 width="432.000000pt" height="720.000000pt" viewBox="0 0 432.000000 720.000000"
 preserveAspectRatio="xMidYMid meet">
<metadata>
Created by potrace 1.15, written by Peter Selinger 2001-2017
</metadata>
<g transform="translate(0.000000,720.000000) scale(0.100000,-0.100000)"
fill="#000000" stroke="none">
<path d="M2135 5754 c-38 -7 -96 -18 -128 -24 -58 -11 -180 -54 -204 -73 -18
-13 -6 -27 23 -27 42 0 141 -62 230 -144 90 -83 170 -169 197 -210 59 -89 110
-229 122 -331 8 -71 -13 -241 -38 -305 -20 -49 -38 -80 -138 -225 -33 -49
-124 -132 -203 -185 -68 -46 -123 -53 -155 -21 -25 25 -17 61 13 61 23 0 66
-33 66 -50 0 -16 17 -11 24 6 7 18 -29 110 -56 140 -21 24 -23 44 -4 44 22 0
80 -44 101 -77 11 -18 26 -32 33 -33 39 -1 -24 136 -110 237 -53 63 -51 82 5
64 52 -17 82 -45 117 -106 29 -50 60 -73 60 -43 0 20 -77 172 -99 195 -12 12
-21 25 -21 29 0 10 -71 97 -87 107 -24 15 -13 27 20 20 49 -9 92 -39 149 -104
52 -61 68 -71 68 -44 0 43 -110 197 -173 242 -23 17 -76 45 -117 63 -95 41
-100 46 -70 66 14 9 61 53 105 98 78 81 126 149 112 162 -3 4 -28 -12 -55 -34
-75 -63 -196 -117 -304 -137 l-38 -7 0 61 c0 34 -4 61 -10 61 -5 0 -10 -6 -10
-14 0 -30 -81 -105 -146 -135 -37 -17 -82 -44 -100 -61 -36 -31 -94 -52 -197
-70 -34 -6 -71 -13 -83 -15 -28 -6 -101 -106 -109 -149 -9 -44 9 -55 25 -15
17 39 41 51 107 50 55 0 170 -27 178 -42 3 -4 -5 -11 -17 -14 -36 -11 -82 -49
-98 -81 -30 -62 -61 -93 -101 -105 -32 -10 -37 -14 -24 -21 32 -18 78 3 135
63 54 57 91 79 132 79 17 0 19 -4 13 -27 -12 -51 -60 -135 -93 -164 -24 -22
-43 -29 -72 -29 -22 0 -40 -4 -40 -8 0 -9 55 -52 66 -52 3 0 18 -8 32 -18 54
-38 60 -36 58 22 -1 64 7 75 95 132 36 23 71 50 78 58 20 24 47 19 70 -10 48
-61 22 -121 -104 -244 -132 -129 -134 -131 -156 -167 -11 -18 -52 -53 -90 -79
-61 -40 -130 -110 -182 -184 l-15 -22 -144 42 c-161 48 -208 72 -208 110 0 14
-5 61 -12 105 -10 72 -15 83 -46 112 -44 40 -85 48 -123 26 -35 -21 -37 -31
-6 -29 24 2 78 -20 89 -38 11 -16 10 -86 -2 -86 -5 0 -17 11 -26 25 -24 36
-76 34 -115 -4 -33 -34 -43 -77 -11 -48 40 36 90 12 122 -58 11 -24 20 -51 20
-59 0 -37 -107 -30 -137 10 -31 42 -37 32 -59 -96 -25 -154 -14 -404 26 -545
10 -38 28 -108 40 -155 12 -47 29 -103 39 -125 10 -22 28 -71 41 -110 13 -38
36 -95 53 -125 17 -30 35 -64 41 -75 11 -19 67 -104 103 -155 28 -38 84 -112
128 -166 53 -66 242 -240 308 -283 30 -20 81 -54 113 -76 32 -21 77 -48 99
-58 22 -11 75 -37 118 -58 43 -21 92 -43 110 -48 18 -5 65 -23 104 -40 66 -27
156 -49 328 -80 33 -6 141 -13 239 -15 165 -4 191 -2 338 24 149 28 303 71
429 120 65 26 296 159 364 210 152 113 375 345 472 490 68 101 194 366 226
475 65 220 84 332 94 532 6 138 -10 380 -30 443 -6 19 -12 42 -13 50 -1 8 -8
33 -14 55 -6 22 -18 68 -25 101 -32 141 -74 236 -215 489 -56 101 -142 207
-281 345 -69 69 -201 173 -294 231 -149 94 -395 193 -565 227 -155 32 -222 42
-274 42 -73 0 -71 18 3 43 57 19 239 42 277 34 39 -7 28 11 -13 22 -120 33
-372 40 -498 15z m1243 -1744 c82 -161 100 -228 109 -405 6 -141 -9 -297 -38
-387 -29 -88 -78 -209 -95 -235 -17 -27 -4 -31 18 -5 25 28 144 248 174 321
15 36 38 91 51 121 14 30 42 124 64 208 37 142 49 205 66 352 l6 54 19 -54
c58 -170 78 -289 79 -473 1 -263 -49 -503 -144 -692 -137 -274 -409 -580 -654
-734 -90 -56 -410 -181 -466 -181 -12 0 -47 -7 -77 -15 -115 -32 -242 -44
-415 -41 -209 4 -247 12 -560 113 -94 30 -319 139 -373 180 -20 16 -57 42 -82
58 -49 32 -148 114 -190 156 -88 90 -170 180 -186 205 -10 16 -22 34 -27 39
-32 40 -107 147 -126 180 -54 92 -62 109 -92 188 -74 197 -119 337 -119 370 0
10 -4 27 -10 37 -39 73 -46 578 -8 616 4 3 15 -12 24 -35 20 -50 43 -63 144
-81 41 -7 87 -19 101 -26 40 -20 89 -80 162 -199 70 -114 170 -235 182 -223 4
4 -9 26 -29 48 -20 22 -48 65 -63 94 -43 87 -10 115 63 52 40 -34 171 -106
192 -106 20 0 13 23 -13 49 -37 34 -35 86 5 106 44 23 54 19 96 -32 56 -70
110 -120 160 -149 53 -31 141 -64 171 -64 13 0 23 -2 23 -5 0 -18 -127 -376
-143 -403 -11 -18 -32 -39 -48 -47 -36 -19 -116 -19 -149 0 -36 21 -66 18 -87
-8 -10 -13 -25 -26 -34 -29 -14 -6 -45 -68 -34 -68 3 0 22 9 44 21 49 25 92
27 125 5 32 -21 33 -30 2 -44 -28 -13 -49 -73 -44 -125 4 -38 31 -44 36 -9 4
26 67 75 118 92 44 15 52 8 30 -24 -9 -14 -16 -38 -16 -53 0 -37 45 -103 70
-103 16 0 17 4 9 32 -14 50 -13 53 42 115 29 32 60 76 70 98 23 51 66 90 122
111 23 9 59 24 80 34 53 25 196 132 197 148 0 18 -8 15 -49 -16 -83 -64 -206
-101 -218 -65 -6 17 54 69 127 110 93 51 135 84 120 93 -7 4 -21 5 -31 3 -23
-6 -59 23 -59 47 0 20 27 34 95 50 28 6 102 29 165 52 229 80 281 87 351 43
75 -48 88 -114 42 -206 -27 -51 -44 -68 -192 -187 -194 -157 -114 -439 149
-528 96 -32 162 -31 285 6 261 78 286 81 339 39 25 -20 28 -27 23 -66 -8 -78
-96 -162 -190 -182 -68 -15 -203 -13 -262 3 -59 17 -175 67 -420 183 -222 104
-376 153 -485 153 -66 0 -196 -26 -239 -48 -49 -25 -91 -106 -91 -176 0 -108
42 -176 138 -223 55 -27 63 -28 262 -33 199 -6 207 -7 264 -34 32 -16 73 -42
92 -58 23 -20 34 -25 34 -15 0 38 -85 103 -195 149 -43 18 -36 22 38 18 49 -2
62 11 28 30 -23 12 -98 12 -161 0 -160 -30 -185 -32 -255 -21 -52 9 -83 21
-123 48 -59 41 -74 75 -19 47 18 -10 63 -19 107 -21 83 -4 80 6 -8 27 -64 15
-107 48 -123 97 -10 31 -9 41 5 68 20 36 81 75 117 75 l24 -1 -26 -22 c-23
-19 -49 -72 -49 -98 0 -18 21 -8 60 31 52 51 101 65 225 64 87 0 110 -4 182
-32 167 -64 185 -83 78 -83 -30 0 -55 -3 -55 -6 0 -9 34 -32 48 -33 7 0 32 -9
56 -20 24 -10 97 -33 162 -50 171 -44 165 -42 129 -52 -16 -5 -56 -6 -87 -3
-57 6 -72 -2 -45 -23 11 -9 257 -63 352 -78 l40 -6 -25 -14 c-14 -7 -46 -13
-72 -14 -44 0 -68 -13 -53 -28 11 -11 258 -6 300 7 68 21 119 44 148 68 77 62
39 -15 -42 -88 -44 -39 -51 -49 -34 -49 83 0 239 174 289 324 16 46 18 49 24
26 4 -14 5 -55 3 -92 -5 -69 8 -92 26 -45 33 86 41 180 26 294 l-6 48 20 -24
c12 -13 29 -49 39 -80 l17 -56 3 59 c3 52 -2 70 -32 130 -19 39 -55 92 -81
118 -25 26 -45 50 -45 53 0 4 25 3 55 0 47 -6 55 -5 55 9 0 40 -177 74 -266
50 -30 -8 -71 -14 -89 -14 -51 0 -47 31 10 72 52 39 57 52 13 43 -36 -8 -51
-17 -174 -98 -95 -64 -123 -77 -159 -77 -35 0 -55 26 -55 72 0 35 6 47 44 84
69 70 88 51 40 -40 -14 -26 -23 -50 -21 -53 26 -25 163 164 227 315 12 28 26
52 30 52 16 0 18 -59 5 -116 -18 -73 -18 -77 -4 -68 13 8 48 84 55 117 2 12
11 54 20 94 9 40 14 101 12 137 -1 37 0 66 3 66 4 0 20 -29 38 -65 30 -63 51
-83 51 -47 0 9 -9 55 -20 102 -43 178 -145 331 -261 390 -33 16 -67 30 -76 30
-31 0 -3 13 44 21 29 4 81 2 131 -6 68 -11 94 -21 138 -51 76 -52 133 -119
162 -189 21 -51 25 -75 24 -156 -1 -80 -5 -106 -27 -154 -14 -32 -23 -60 -21
-62 6 -6 46 48 46 62 0 6 7 26 16 44 54 109 89 368 80 595 l-5 138 24 -28 c14
-16 42 -63 63 -104z"/>
</g>
</svg>