<?xml version="1.0" standalone="no"?>
<!DOCTYPE svg PUBLIC "-//W3C//DTD SVG 20010904//EN"
 "http://www.w3.org/TR/2001/REC-SVG-20010904/DTD/svg10.dtd">
<svg version="1.0" xmlns="http://www.w3.org/2000/svg"
 width="550.000000pt" height="550.000000pt" viewBox="0 0 550.000000 550.000000"
 preserveAspectRatio="xMidYMid meet">
<metadata>
Created by potrace 1.15, written by Peter Selinger 2001-2017
</metadata>
<g transform="translate(0.000000,550.000000) scale(0.100000,-0.100000)"
fill="#000000" stroke="none">
<path d="M2645 5360 c-80 -13 -217 -56 -285 -90 -83 -42 -177 -116 -222 -176
-22 -30 -48 -54 -57 -54 -53 0 -172 -118 -185 -182 -3 -16 -21 -42 -39 -58
-58 -51 -146 -240 -184 -394 -10 -43 -25 -77 -37 -87 -20 -16 -20 -17 -2 -93
15 -66 16 -87 6 -144 -6 -37 -16 -81 -21 -98 -15 -50 -10 -141 12 -238 21 -87
21 -94 6 -151 -14 -53 -15 -68 -2 -125 7 -36 25 -98 39 -139 16 -46 26 -96 26
-131 0 -32 11 -101 25 -154 18 -72 22 -104 15 -122 -14 -36 -12 -54 5 -54 18
0 19 -12 4 -63 -9 -34 -7 -47 25 -121 36 -83 45 -141 27 -175 -6 -11 -5 -48 3
-102 13 -87 13 -87 39 -19 3 8 6 -7 6 -35 1 -27 9 -90 18 -140 15 -84 17 -88
25 -55 4 19 7 69 6 110 -3 61 0 75 12 75 16 0 17 -29 4 -113 -4 -29 -1 -57 9
-85 9 -23 17 -55 19 -72 2 -22 9 -31 26 -33 15 -2 27 -15 37 -38 8 -19 21 -36
30 -39 51 -16 48 -13 32 -38 -11 -18 -13 -35 -6 -76 8 -52 47 -181 54 -181 2
0 2 24 -1 53 l-5 52 29 -71 c30 -74 85 -176 123 -229 12 -17 18 -22 14 -10
-33 91 -85 248 -84 253 0 4 29 -49 64 -118 56 -109 68 -120 48 -47 -9 33 6 16
43 -50 20 -38 44 -76 52 -86 9 -9 42 -68 73 -130 58 -111 78 -133 38 -41 l-20
48 22 -19 c12 -11 39 -56 60 -101 39 -83 59 -107 95 -118 34 -10 52 2 88 63
23 38 47 62 70 74 60 28 121 133 141 241 7 35 8 36 26 20 17 -15 19 -15 25 0
8 21 30 21 38 0 10 -26 16 -13 27 57 16 103 23 112 29 34 l5 -70 17 39 c12 25
23 36 32 33 10 -4 18 10 29 51 12 45 15 50 16 27 1 -27 4 -24 24 25 26 63 43
67 39 9 -4 -65 15 -37 47 69 17 54 40 107 52 119 12 11 27 43 34 70 l13 48 7
-49 8 -48 43 67 c45 70 56 123 34 164 -8 15 -6 17 15 13 23 -4 25 -1 25 36 0
22 3 55 8 73 7 32 7 31 12 -21 l6 -55 7 50 c4 28 10 65 13 84 3 18 17 45 31
59 32 32 48 78 62 184 14 102 30 482 23 552 -2 28 1 75 8 105 l13 56 17 -55
16 -55 16 25 c31 47 31 74 -2 190 l-32 111 40 102 c95 238 125 475 87 689 -22
128 -82 346 -112 408 -30 61 -93 134 -135 156 -19 10 -28 22 -28 38 0 102 -93
220 -214 271 -47 20 -86 46 -125 85 -66 65 -152 109 -271 139 -99 24 -259 34
-345 21z m57 -854 c40 -8 114 -29 163 -46 112 -40 224 -48 411 -30 170 16 208
7 276 -61 70 -70 88 -139 93 -346 2 -89 9 -229 15 -310 9 -105 9 -164 2 -203
-8 -43 -7 -60 4 -82 38 -73 34 -159 -14 -288 -23 -64 -46 -207 -64 -405 -11
-132 -22 -152 -28 -55 -2 19 -8 -14 -15 -75 -6 -60 -15 -130 -20 -154 l-7 -45
-18 34 -17 33 -8 -49 c-5 -36 -9 -44 -15 -30 -5 17 -11 11 -36 -35 -35 -65
-62 -74 -92 -32 -26 37 -52 126 -52 179 l0 42 -84 41 c-66 32 -96 54 -145 107
-33 37 -61 71 -61 75 0 5 -9 9 -20 9 -36 0 -94 -30 -127 -65 -42 -46 -84 -46
-173 -4 -88 43 -124 50 -149 32 -12 -8 -21 -20 -21 -28 0 -8 -15 -17 -37 -21
-59 -11 -125 -42 -159 -75 -17 -17 -49 -37 -70 -44 -35 -13 -37 -15 -16 -21
28 -8 28 -10 -4 -51 -16 -21 -29 -54 -33 -86 -4 -29 -16 -65 -26 -81 l-19 -28
-13 38 -13 39 6 -53 c2 -29 8 -60 11 -69 6 -14 3 -14 -19 2 -45 35 -76 89
-123 221 -26 71 -85 224 -132 339 -86 212 -91 236 -78 313 6 34 2 57 -21 120
-27 70 -29 88 -28 202 1 105 4 134 24 184 19 49 23 77 21 151 -1 51 -7 115
-15 143 -13 51 -13 52 16 78 37 36 104 150 113 193 9 44 59 164 90 217 38 64
63 77 127 62 86 -20 272 -15 343 10 73 24 158 27 257 8z m-77 -1896 c48 -25
162 -27 225 -5 39 14 45 14 60 0 9 -8 33 -15 52 -15 54 0 178 -87 178 -125 0
-3 -13 -11 -30 -16 l-30 -11 19 -26 c10 -15 33 -56 51 -91 26 -52 31 -72 26
-102 -12 -75 -47 -115 -62 -74 -5 13 -9 13 -22 3 -12 -10 -16 -10 -19 0 -8 22
-21 13 -27 -20 -3 -18 -16 -49 -28 -68 l-21 -35 -15 45 c-14 40 -16 42 -22 21
-7 -29 -30 -40 -30 -15 0 17 -1 17 -13 -1 -20 -27 -34 -12 -48 53 -11 53 -29
92 -29 64 0 -7 -5 -12 -11 -12 -12 0 -8 68 5 100 5 13 -9 15 -94 15 l-101 0 6
-24 c17 -66 17 -82 2 -99 -8 -9 -27 -41 -41 -70 -15 -29 -32 -52 -39 -49 -7 2
-14 31 -17 68 -5 61 -5 62 -13 26 -10 -46 -22 -41 -31 14 -6 39 -8 41 -21 23
-13 -16 -16 -17 -25 -4 -5 8 -10 29 -10 45 l-1 30 -17 -27 c-9 -16 -20 -28
-23 -28 -11 0 -39 78 -54 152 -21 98 -21 172 -1 203 19 28 33 31 60 10 28 -21
33 -19 53 18 l17 32 6 -28 5 -28 34 35 c41 42 44 42 96 16z"/>
<path d="M3163 3950 c49 -41 87 -108 87 -152 0 -40 -10 -51 -117 -122 -75 -49
-202 -166 -222 -204 -9 -17 6 -10 65 28 42 27 100 57 130 67 121 38 200 155
174 254 -13 46 -78 123 -124 146 -29 14 -29 13 7 -17z"/>
<path d="M2111 3822 c-5 -9 -37 -37 -71 -62 -82 -59 -105 -98 -104 -175 0 -40
8 -74 21 -100 29 -56 113 -131 180 -162 49 -23 64 -25 127 -19 100 9 221 48
293 95 33 21 63 44 67 49 4 6 -15 23 -41 38 -178 101 -291 183 -394 285 -59
60 -70 67 -78 51z m79 -342 c0 -5 9 -19 20 -30 36 -36 130 -21 130 20 0 12 7
20 18 20 28 0 91 -20 97 -31 10 -15 -98 -60 -160 -66 -108 -11 -231 68 -140
90 32 8 35 7 35 -3z"/>
<path d="M3308 3708 c-18 -34 -53 -84 -78 -110 -39 -42 -54 -51 -109 -64 -69
-16 -110 -37 -180 -92 l-44 -36 27 -22 c31 -27 139 -63 212 -71 105 -11 234
38 316 122 54 55 74 105 64 158 -9 47 -34 77 -111 131 l-64 45 -33 -61z"/>
<path d="M3381 3331 c-20 -22 -38 -31 -60 -31 -41 0 -39 -11 8 -33 53 -24 136
-111 168 -175 23 -48 25 -61 21 -140 -4 -64 -3 -81 4 -62 6 14 11 63 12 110 1
95 -11 124 -94 224 -43 52 -45 60 -30 102 15 39 5 41 -29 5z"/>
<path d="M2582 936 c-7 -19 -26 -45 -42 -58 -16 -13 -43 -33 -59 -46 -16 -12
-35 -38 -41 -58 -12 -36 -12 -37 36 -80 26 -24 54 -44 61 -44 8 0 23 -5 33
-10 29 -16 106 24 137 71 29 44 34 125 13 196 -12 38 -15 41 -54 45 -22 3 -48
8 -56 12 -12 5 -19 -3 -28 -28z"/>
<path d="M2414 552 c-23 -14 -49 -38 -58 -53 -28 -48 -52 -274 -33 -316 10
-23 16 -26 72 -38 17 -3 39 -8 50 -12 37 -10 1 13 -47 31 -49 18 -64 40 -53
76 6 19 8 19 35 -10 15 -17 47 -39 70 -49 37 -17 45 -17 83 -4 23 8 55 12 71
9 29 -6 29 -6 11 14 -10 11 -14 20 -9 20 5 0 20 9 34 20 l25 19 -22 16 c-30
21 -29 27 7 43 17 8 37 27 46 44 19 36 14 45 -11 18 -18 -19 -45 -26 -58 -14
-3 3 6 17 21 30 l27 23 -32 1 c-21 0 -44 10 -64 28 -28 25 -35 41 -38 90 -1 7
-15 12 -36 12 -18 0 -38 6 -42 13 -6 11 -16 9 -49 -11z"/>
</g>
</svg>