<?xml version="1.0" standalone="no"?>
<!DOCTYPE svg PUBLIC "-//W3C//DTD SVG 20010904//EN"
 "http://www.w3.org/TR/2001/REC-SVG-20010904/DTD/svg10.dtd">
<svg version="1.0" xmlns="http://www.w3.org/2000/svg"
 width="270.000000pt" height="270.000000pt" viewBox="0 0 270.000000 270.000000"
 preserveAspectRatio="xMidYMid meet">
<metadata>
Created by potrace 1.15, written by Peter Selinger 2001-2017
</metadata>
<g transform="translate(0.000000,270.000000) scale(0.100000,-0.100000)"
fill="#000000" stroke="none">
<path d="M805 2384 c3 -11 -1 -28 -8 -38 -11 -16 -17 -17 -36 -6 -27 14 -39 6
-22 -13 6 -8 8 -22 5 -31 -4 -11 3 -27 20 -45 21 -22 26 -34 20 -55 -7 -29
-21 -34 -30 -11 -4 8 -11 15 -16 15 -18 0 0 -92 22 -115 25 -26 26 -38 3 -31
-10 3 -24 2 -31 -3 -11 -6 -8 -10 10 -15 42 -11 61 -32 49 -54 -7 -14 -7 -24
3 -38 13 -17 15 -17 30 -1 33 33 46 19 49 -54 2 -39 4 -44 25 -42 31 4 29 -27
-3 -57 -23 -22 -28 -23 -48 -11 -20 13 -21 13 -8 -3 12 -14 24 -16 65 -11 48
6 50 5 31 -10 -17 -14 -18 -17 -5 -25 8 -5 23 -10 32 -10 9 0 20 -4 23 -10 3
-5 -2 -10 -13 -10 -27 0 -34 -11 -15 -25 19 -14 9 -35 -18 -35 -10 0 -19 -5
-19 -10 0 -6 -20 -15 -45 -22 -25 -7 -45 -16 -45 -20 0 -16 -63 -7 -138 18
-82 28 -172 41 -172 25 0 -5 6 -12 13 -15 8 -4 5 -10 -10 -22 -26 -19 -31 -47
-8 -38 18 7 20 -18 3 -46 -14 -22 -6 -36 14 -24 7 5 22 9 33 10 11 0 43 4 70
8 l50 7 -25 -20 c-14 -11 -31 -21 -38 -21 -7 0 -10 -5 -6 -11 11 -18 92 -4
118 20 25 23 41 18 26 -9 -13 -25 0 -33 26 -15 20 13 24 13 31 1 4 -8 17 -16
28 -18 17 -2 19 2 17 25 -4 32 12 35 48 7 31 -24 69 -28 50 -5 -15 18 -5 35
21 35 18 0 20 -4 14 -30 -9 -42 22 -41 37 1 9 25 15 30 34 25 12 -3 26 -2 29
4 10 16 25 12 19 -5 -4 -9 0 -15 9 -15 9 0 30 -20 46 -44 17 -24 66 -77 110
-118 59 -55 87 -90 107 -132 14 -31 23 -60 20 -63 -3 -3 -29 8 -57 26 -42 26
-66 33 -129 38 -53 4 -79 2 -84 -6 -4 -6 -19 -11 -33 -11 -15 0 -33 -7 -42
-15 -63 -59 -115 -95 -138 -95 l-26 0 22 -24 23 -24 -21 -18 c-32 -27 -25 -37
18 -30 34 5 41 3 46 -14 3 -11 2 -27 -3 -35 -4 -9 -6 -29 -4 -45 3 -23 9 -29
25 -27 13 1 23 -5 25 -16 5 -25 -14 -45 -51 -52 -92 -18 -127 -36 -158 -82
-17 -24 -28 -47 -24 -51 3 -3 10 0 15 8 7 11 10 8 10 -14 0 -24 2 -27 15 -16
19 16 45 -3 45 -31 0 -17 2 -17 33 4 18 12 43 33 57 47 l25 25 3 -34 c2 -20
-2 -37 -9 -42 -8 -4 -10 -11 -6 -15 3 -4 14 -1 23 7 9 7 26 18 38 24 11 6 29
26 38 45 32 67 55 78 60 30 l3 -30 40 37 c22 21 43 36 48 35 12 -3 8 43 -5 60
-7 8 -24 22 -38 32 l-24 16 28 0 c26 0 28 2 24 33 -3 17 -8 40 -13 50 -4 11
-3 17 5 17 7 0 19 -8 26 -17 9 -12 13 -13 14 -5 0 14 56 72 69 72 19 0 18 -15
-5 -63 -19 -42 -24 -74 -27 -162 -3 -61 -8 -118 -12 -127 -10 -26 5 -21 45 13
l35 30 15 -22 c8 -12 35 -41 61 -66 28 -26 49 -56 53 -74 10 -52 -31 -107
-121 -162 -39 -25 -80 -84 -67 -96 4 -3 9 0 11 7 8 21 23 2 23 -29 0 -16 5
-29 10 -29 6 0 10 5 10 10 0 19 39 10 45 -10 7 -22 25 -27 25 -7 0 6 18 29 40
49 21 21 46 51 55 68 21 41 35 38 35 -10 0 -22 3 -40 8 -40 15 0 53 81 47 100
-8 25 13 27 31 3 12 -16 15 -16 24 -3 6 8 9 33 8 54 -4 48 17 60 33 19 l11
-28 12 25 c6 14 21 37 34 50 l23 25 -25 6 c-43 12 -49 19 -31 39 22 24 13 37
-35 50 -30 8 -40 16 -40 32 0 16 5 19 25 16 14 -3 25 -1 25 4 0 7 -12 13 -69
34 -11 3 -8 10 10 27 l24 22 -30 3 c-32 4 -65 28 -65 47 0 22 28 39 43 26 8
-6 16 -9 19 -6 9 10 -4 57 -18 62 -21 8 -17 34 10 67 l23 30 35 -22 c26 -16
51 -22 97 -22 73 0 107 15 152 68 26 30 44 41 76 47 29 4 44 13 48 26 4 10 11
19 16 19 5 0 9 17 9 38 0 28 -10 51 -41 92 -23 30 -47 56 -55 58 -25 6 -68
111 -69 167 0 28 -5 56 -12 63 -16 17 -17 64 -1 80 17 17 53 15 68 -3 7 -9 10
-26 6 -42 -6 -27 -6 -27 9 -9 21 28 19 79 -5 101 -12 11 -37 18 -64 19 -38 1
-50 -4 -80 -33 l-35 -34 -16 39 c-23 55 -40 180 -31 235 16 108 81 179 162
179 49 0 53 -7 29 -64 -10 -23 -24 -38 -40 -42 -14 -3 -22 -10 -19 -15 9 -16
50 -10 77 11 26 20 26 20 36 1 23 -42 5 -101 -29 -101 -10 0 -23 8 -29 18 -9
16 -10 16 -16 -1 -11 -26 2 -48 35 -60 26 -10 30 -17 30 -47 0 -20 7 -45 15
-56 14 -19 14 -19 15 3 0 12 11 35 25 51 14 17 28 44 31 61 8 37 25 36 39 -3
6 -19 6 -33 -3 -46 -18 -30 7 -26 42 6 25 24 28 32 23 71 -4 40 -3 44 21 50
14 3 33 1 44 -6 15 -9 18 -8 18 8 0 10 -7 24 -15 31 -13 11 -12 15 5 37 25 32
26 52 2 30 -23 -21 -42 -21 -67 -3 -18 13 -18 14 3 25 30 16 29 34 -1 20 -16
-7 -31 -7 -51 0 l-28 11 26 31 c27 32 30 41 19 52 -3 4 -12 -2 -19 -12 -8 -10
-35 -24 -62 -30 -39 -10 -54 -9 -84 4 -51 21 -91 19 -141 -6 -55 -28 -94 -64
-120 -114 -18 -34 -22 -56 -21 -145 0 -88 5 -117 27 -179 15 -41 27 -78 27
-83 0 -4 -15 -8 -33 -8 -38 0 -72 -29 -82 -71 -7 -29 9 -49 19 -24 6 17 61 21
72 4 3 -6 1 -16 -5 -22 -6 -6 -11 -22 -10 -37 0 -24 1 -24 9 -4 11 28 36 37
54 19 8 -8 29 -16 47 -17 24 -2 37 -10 50 -33 23 -36 25 -75 5 -75 -14 0 -46
-36 -46 -52 0 -4 7 -5 15 -2 18 7 20 -10 3 -23 -7 -6 -30 -14 -52 -17 -32 -6
-42 -4 -62 15 l-24 22 0 -39 c0 -22 5 -45 12 -52 7 -7 40 -12 78 -12 52 0 71
-4 83 -18 33 -36 19 -75 -34 -102 -72 -37 -176 -15 -198 42 -5 13 -25 63 -46
112 -45 108 -80 216 -90 273 -5 32 -2 50 11 71 14 25 15 35 5 62 -18 54 -15
71 13 64 38 -9 51 5 27 27 -17 16 -21 32 -21 81 l0 61 25 -23 c14 -13 25 -22
26 -19 10 48 6 114 -7 134 -9 14 -12 25 -7 25 16 0 44 -36 36 -45 -5 -4 -1 -6
7 -3 22 7 24 47 4 69 -13 15 -15 22 -7 27 9 6 9 17 -2 47 -11 33 -11 42 0 50
10 9 9 15 -6 34 -23 29 -24 41 -2 41 13 0 11 6 -10 28 -15 15 -27 36 -27 46 0
13 -5 16 -21 11 -19 -6 -21 -4 -16 14 5 21 -7 29 -18 11 -10 -17 -25 -11 -25
10 0 24 -6 25 -27 5 -11 -12 -33 -15 -79 -14 -46 2 -69 -2 -81 -13 -10 -9 -39
-19 -65 -22 -58 -9 -71 -24 -62 -70 6 -37 28 -48 51 -25 12 12 43 6 43 -9 0
-13 -94 -24 -136 -16 -31 6 -35 10 -31 31 6 30 -14 40 -49 25 -16 -8 -24 -20
-24 -36 0 -39 30 -49 119 -40 109 11 121 10 121 -11 0 -15 -19 -14 -68 1 -13
4 -36 -42 -28 -55 3 -4 19 -6 35 -3 35 5 51 -18 30 -44 -10 -12 -24 -14 -66
-8 -40 5 -59 3 -78 -10 -13 -9 -28 -16 -32 -16 -10 0 -130 141 -155 182 -12
19 -18 49 -18 94 0 72 -20 194 -32 194 -5 0 -8 -4 -8 -10 0 -18 -31 -10 -51
13 -19 21 -20 21 -14 1z"/>
</g>
</svg>