<?xml version="1.0" standalone="no"?>
<!DOCTYPE svg PUBLIC "-//W3C//DTD SVG 20010904//EN"
 "http://www.w3.org/TR/2001/REC-SVG-20010904/DTD/svg10.dtd">
<svg version="1.0" xmlns="http://www.w3.org/2000/svg"
 width="618.000000pt" height="412.000000pt" viewBox="0 0 618.000000 412.000000"
 preserveAspectRatio="xMidYMid meet">
<metadata>
Created by potrace 1.15, written by Peter Selinger 2001-2017
</metadata>
<g transform="translate(0.000000,412.000000) scale(0.100000,-0.100000)"
fill="#000000" stroke="none">
<path d="M0 3565 l0 -554 32 -17 c17 -9 63 -22 102 -30 129 -25 197 -42 211
-54 9 -8 33 -10 67 -6 73 7 78 8 78 16 0 12 108 4 124 -9 21 -18 76 -23 76 -7
0 8 10 11 30 8 17 -2 30 0 30 5 0 5 41 8 96 6 77 -2 102 -7 130 -24 34 -21 46
-36 21 -26 -17 6 -28 -1 -45 -31 -12 -21 -11 -26 4 -36 15 -11 12 -13 -17 -10
-19 2 -28 1 -21 -2 26 -12 10 -25 -25 -21 -55 6 -83 17 -83 33 0 8 -9 14 -21
14 -11 0 -18 4 -15 9 4 5 -7 12 -24 16 -16 4 -30 10 -30 14 0 4 -28 3 -62 -2
-35 -5 -71 -10 -80 -10 -19 -1 -21 -6 -22 -47 -1 -14 -6 -24 -13 -23 -7 2 -13
-1 -13 -6 0 -5 -8 -12 -18 -14 -12 -3 -11 -5 6 -6 38 -2 14 -21 -27 -21 -46 0
-84 24 -61 40 13 9 13 11 1 19 -12 8 -12 13 -3 24 10 12 9 16 -4 21 -22 8
-156 -3 -170 -15 -6 -5 -13 -6 -17 -3 -3 3 -3 -3 -1 -14 3 -10 -2 -26 -11 -36
-17 -16 -40 -23 -31 -8 10 16 -48 5 -121 -23 l-73 -27 0 -1354 0 -1354 565 0
c412 0 565 3 565 11 0 6 11 37 24 68 22 52 38 104 67 209 7 23 28 60 46 82 19
22 29 40 23 40 -8 0 -7 8 4 25 9 13 16 33 16 44 0 17 -5 19 -35 14 -29 -5 -35
-3 -36 13 -3 46 4 80 19 97 13 15 14 24 5 47 -9 24 -8 32 8 48 10 11 23 22 29
24 7 2 13 26 14 53 3 59 17 89 54 112 15 10 34 25 43 35 9 10 21 18 27 18 6 0
12 5 14 11 3 9 10 9 27 -1 20 -10 23 -10 19 2 -4 8 1 14 11 14 48 3 176 38
213 59 24 14 61 30 83 36 38 11 39 12 18 22 -15 6 -23 19 -23 34 0 40 -33 27
-92 -37 -37 -40 -70 -65 -98 -75 -24 -8 -45 -13 -48 -10 -3 3 -11 0 -18 -6 -8
-7 -14 -7 -19 1 -5 8 -14 6 -31 -5 -13 -8 -24 -12 -24 -8 0 5 -36 8 -80 8 -57
0 -80 -4 -80 -12 0 -21 -70 -112 -91 -118 -10 -4 -19 -10 -19 -15 0 -5 -12
-21 -26 -35 l-26 -26 -29 27 c-15 15 -26 31 -23 36 10 16 6 78 -5 92 -6 8 -12
30 -13 50 -1 31 -4 36 -22 34 -22 -3 -37 -29 -57 -95 -9 -31 -18 -43 -31 -43
-10 0 -18 5 -18 10 0 6 6 10 13 10 8 0 7 4 -3 10 -13 9 -13 10 0 10 11 0 8 6
-8 18 -37 29 -63 74 -50 89 7 9 7 17 -1 27 -8 10 -9 21 0 42 11 31 4 110 -11
119 -12 8 -7 53 9 82 10 19 9 23 -3 23 -8 0 -23 -16 -32 -35 -19 -41 -34 -44
-53 -13 -15 25 -16 119 -1 128 5 3 13 32 19 65 6 33 13 69 16 80 4 14 -5 31
-32 59 l-38 39 -70 -6 c-48 -4 -83 -2 -110 7 -25 9 -55 12 -80 8 -65 -11 -105
-4 -105 19 0 16 -6 19 -35 17 -19 -1 -37 1 -41 5 -4 4 -14 1 -22 -5 -12 -10
-14 -9 -11 7 3 16 14 21 51 23 39 3 46 6 42 20 -5 13 -4 14 4 3 11 -15 62 -8
62 9 0 6 8 10 19 10 10 0 38 7 62 15 34 12 44 13 52 3 7 -10 10 -10 14 0 2 6
12 12 20 12 15 0 86 58 90 73 1 5 13 17 27 28 15 12 26 31 26 44 0 15 12 33
32 48 31 25 31 26 15 51 -10 14 -27 28 -40 32 -23 6 -77 83 -77 111 0 8 10 23
22 32 21 18 21 18 2 37 -11 10 -33 26 -49 34 -68 33 -83 66 -43 94 32 23 68
20 97 -7 30 -28 202 -83 216 -69 13 13 79 12 101 -3 13 -8 30 -15 37 -15 8 0
26 -9 40 -20 14 -11 38 -20 54 -20 16 0 48 9 71 20 22 11 46 20 52 20 11 0
-25 59 -44 72 -14 9 11 88 31 95 9 3 23 1 32 -5 9 -6 37 -23 64 -36 36 -20 47
-22 47 -11 0 19 3 19 44 -5 l35 -19 15 29 c8 17 18 44 21 62 4 18 15 44 25 58
10 14 23 44 30 67 7 23 25 55 40 72 44 47 46 140 4 124 -8 -3 -14 1 -14 11 0
9 -4 16 -10 16 -5 0 -10 -3 -10 -7 0 -5 -14 -9 -31 -10 -17 -1 -37 -7 -44 -13
-6 -5 -15 -7 -18 -4 -3 4 -14 3 -24 -1 -10 -3 -41 -8 -70 -10 -28 -2 -61 -8
-73 -15 -27 -15 -103 -16 -108 -1 -2 6 -8 9 -13 5 -15 -9 -63 25 -82 58 -9 16
-21 26 -27 23 -5 -3 -10 0 -10 8 0 14 -36 30 -69 32 -17 0 -26 21 -12 29 5 3
7 16 3 28 -3 13 -1 19 5 15 9 -6 9 6 -1 148 -2 22 -8 66 -14 98 -6 32 -8 65
-5 75 12 31 48 62 73 62 65 0 82 -21 72 -88 -3 -24 -10 -32 -32 -37 -17 -4
-31 -15 -35 -28 -11 -33 -12 -97 -2 -97 4 0 5 -10 1 -22 -4 -13 -7 -51 -5 -85
1 -38 -2 -63 -9 -63 -5 0 -10 -4 -10 -10 0 -5 7 -10 16 -10 8 0 12 5 9 10 -3
6 2 10 12 11 11 0 13 3 5 6 -10 4 -8 11 8 26 61 63 80 90 80 110 0 24 18 43
63 66 15 8 27 18 27 23 0 4 6 8 13 8 6 0 23 6 37 14 14 7 48 26 75 41 39 22
64 28 115 29 65 2 163 -13 176 -27 4 -4 18 -7 31 -7 13 0 23 -4 23 -9 0 -5 14
-11 31 -13 26 -4 33 0 42 21 7 14 22 35 35 48 12 12 22 27 22 33 0 5 12 10 26
10 19 0 25 -4 20 -15 -3 -8 -1 -15 4 -15 6 0 10 5 10 11 0 6 14 8 38 5 20 -4
32 -3 26 1 -6 5 -12 15 -12 23 -16 157 -15 166 15 194 31 29 78 41 126 32 17
-3 41 -7 51 -9 19 -2 29 -15 40 -49 7 -22 26 -24 26 -2 0 8 -4 12 -10 9 -5 -3
-10 3 -10 14 0 11 5 23 12 27 6 4 8 3 5 -3 -4 -6 0 -16 7 -22 11 -10 16 -8 21
8 3 12 4 25 0 31 -4 6 1 7 11 3 12 -4 15 -3 10 5 -4 7 -13 12 -19 12 -7 0 -21
8 -32 16 -19 16 -19 16 5 8 14 -4 33 -8 42 -9 10 -1 28 -10 40 -21 37 -33 77
-54 82 -45 3 5 -4 11 -17 15 -12 3 -42 25 -66 50 -38 38 -42 47 -31 61 7 8 18
15 25 15 6 0 20 9 30 20 20 22 8 28 -15 8 -12 -11 -12 -10 0 5 7 10 19 16 26
13 13 -5 74 36 87 59 4 8 5 20 2 25 -3 6 -1 10 5 10 7 0 9 7 6 16 -3 8 -2 13
3 10 5 -3 14 1 21 9 7 8 18 15 24 15 6 0 21 11 34 25 13 13 36 30 52 37 17 7
30 18 30 24 0 6 10 19 22 30 21 19 21 19 16 -2 l-5 -21 51 19 c28 11 66 29 84
40 20 13 32 15 32 8 0 -9 4 -9 13 -3 6 6 24 13 40 17 15 3 27 10 27 15 0 5 -8
7 -19 4 -10 -3 -21 0 -25 5 -3 5 0 9 7 9 20 -2 97 26 97 35 0 4 10 8 23 8 21
-1 21 -2 4 -14 -16 -12 -16 -14 -1 -20 21 -8 26 -8 20 2 -2 4 16 8 42 8 26 0
56 4 66 9 14 6 17 5 12 -3 -9 -14 -1 -15 22 -3 24 13 107 22 126 15 10 -4 14
-13 11 -24 -3 -10 0 -17 9 -17 9 0 13 4 10 9 -3 5 6 6 20 2 21 -5 25 -3 21 9
-4 8 1 17 11 21 11 4 15 2 11 -7 -4 -11 7 -14 51 -14 49 0 53 1 37 13 -10 8
-15 14 -9 14 5 0 28 -18 51 -39 36 -34 39 -40 22 -44 -12 -3 -17 -1 -12 5 3 7
1 8 -5 4 -16 -10 -15 -26 1 -26 6 0 21 -8 32 -17 19 -15 19 -15 -10 -9 -16 4
-38 9 -47 12 -10 3 -18 0 -18 -6 0 -6 13 -13 29 -16 17 -4 32 -12 35 -19 2 -7
16 -11 33 -9 27 4 27 3 3 -5 -14 -4 -32 -4 -41 0 -25 13 -69 18 -69 9 0 -5 13
-11 30 -15 45 -10 45 -24 0 -18 -22 3 -40 3 -40 1 0 -17 32 -77 42 -81 7 -3
-3 -3 -22 0 -19 3 -44 11 -55 16 -11 6 -38 14 -60 18 -110 20 -104 17 -132 69
l-20 35 24 0 c25 0 29 -5 13 -21 -16 -16 20 -57 43 -49 9 4 17 11 17 16 0 19
18 8 24 -14 3 -14 14 -23 27 -24 15 -1 19 2 15 13 -3 9 -1 12 4 9 6 -3 10 -1
10 4 0 18 18 13 41 -11 l23 -23 -17 27 c-9 15 -17 33 -17 41 0 7 -10 23 -23
35 -24 23 -43 30 -32 12 8 -14 5 -13 -41 9 -21 10 -67 21 -100 23 l-62 4 15
-23 c9 -13 13 -26 9 -30 -3 -3 -6 -1 -6 7 0 10 -4 10 -17 -1 -16 -12 -17 -12
-6 2 11 13 10 19 -5 33 -10 9 -21 14 -23 12 -2 -3 -30 -6 -61 -7 -32 -1 -55
-6 -52 -11 3 -4 -6 -8 -19 -8 -14 0 -39 -3 -57 -7 -24 -4 -31 -3 -26 5 8 14
-3 15 -22 4 -10 -7 -9 -16 2 -44 9 -20 23 -43 31 -52 10 -9 12 -16 5 -16 -6 0
-10 -8 -8 -18 3 -19 -53 -124 -84 -156 -21 -20 -21 -20 0 15 29 47 28 50 -9
32 -39 -19 -50 -10 -12 11 l28 15 -30 0 c-88 0 -87 23 3 77 18 10 32 24 32 31
0 6 4 15 10 18 6 4 7 -1 3 -12 -6 -15 -4 -16 9 -5 12 10 14 20 8 43 -5 16 -9
33 -10 37 -2 11 -33 2 -50 -15 -13 -14 -12 -14 10 -8 29 9 26 3 -9 -15 -15 -8
-21 -8 -17 -1 9 14 -10 14 -37 -1 -36 -19 -104 -77 -105 -90 -1 -7 -4 -29 -7
-48 l-6 -35 15 33 c17 37 26 42 19 10 -4 -22 -4 -23 11 -4 9 11 16 25 16 32 0
12 74 79 87 79 5 0 15 4 23 10 13 8 13 7 1 -8 -7 -9 -19 -17 -26 -17 -21 0
-42 -33 -60 -95 -9 -33 -24 -64 -33 -70 -21 -12 -93 -18 -73 -6 11 7 10 11 -5
19 -14 7 -24 5 -38 -9 -11 -11 -14 -19 -8 -19 20 0 13 -25 -13 -50 -14 -13
-24 -29 -21 -36 6 -15 -34 -53 -52 -48 -7 1 -8 0 -2 -3 17 -8 11 -21 -12 -26
-13 -2 2 -4 34 -3 31 0 59 -2 62 -5 4 -3 0 -19 -9 -35 -8 -16 -15 -41 -15 -56
0 -23 4 -28 24 -28 13 0 30 -7 37 -16 12 -15 11 -16 -9 -10 -23 8 -23 7 -8
-23 22 -41 20 -49 -4 -18 -11 14 -20 28 -20 31 0 4 -9 16 -20 28 -24 26 -25
51 -4 84 26 39 7 48 -58 28 -31 -10 -66 -25 -77 -33 -25 -19 -41 -83 -20 -78
8 2 11 2 7 0 -15 -9 -8 -23 19 -37 l28 -15 -26 -1 c-30 0 -47 16 -58 57 -6 23
-13 28 -38 28 -27 0 -30 3 -22 17 5 10 15 18 21 18 9 0 9 3 1 11 -14 14 -104
-57 -96 -77 3 -8 -8 -15 -31 -20 -21 -3 -36 -12 -36 -20 0 -8 -4 -14 -9 -14
-5 0 -12 -9 -16 -19 -3 -11 -14 -22 -23 -24 -16 -4 -16 -5 1 -6 18 -1 22 -12
10 -25 -11 -11 -12 -36 -1 -36 5 0 6 -9 3 -21 -5 -14 -3 -19 3 -15 6 4 8 -2 5
-13 -3 -12 -11 -17 -19 -14 -8 3 -14 3 -14 0 0 -3 7 -7 15 -11 10 -3 30 9 54
32 71 68 85 79 78 60 -8 -21 11 -34 26 -19 24 24 24 8 -2 -41 -14 -29 -30 -56
-35 -59 -5 -4 -5 -12 -1 -18 4 -7 1 -19 -6 -27 -9 -11 -9 -18 -1 -26 7 -7 12
-16 12 -21 0 -5 -7 -1 -16 7 -8 9 -21 16 -27 15 -8 0 -8 -2 1 -6 7 -2 17 -14
24 -26 11 -21 10 -21 -7 -7 -17 14 -18 13 -12 -3 4 -10 7 -24 7 -30 0 -8 4 -7
12 1 18 18 32 14 17 -5 -8 -9 -13 -18 -11 -20 2 -3 0 -8 -4 -11 -4 -4 -4 -2
-1 4 5 8 -2 11 -17 10 -16 0 -21 -5 -16 -12 5 -5 6 -21 3 -34 -5 -18 -3 -21 7
-15 10 6 12 4 7 -8 -3 -8 0 -18 8 -21 11 -4 11 -10 2 -30 -7 -14 -15 -26 -18
-26 -3 0 -5 -10 -4 -22 2 -21 7 -24 34 -19 16 2 53 70 45 83 -4 7 3 3 15 -10
12 -12 27 -19 33 -16 7 5 8 2 2 -8 -13 -22 -70 -68 -83 -68 -7 0 -25 -7 -41
-15 -21 -11 -31 -25 -36 -53 -4 -20 -13 -49 -21 -64 -7 -16 -11 -28 -8 -28 3
0 -4 -18 -15 -40 -11 -22 -25 -40 -31 -40 -6 0 -8 -4 -4 -9 3 -6 -6 -6 -24 -1
-17 4 -31 5 -33 1 -2 -4 -20 -17 -41 -30 -20 -12 -35 -26 -32 -31 5 -8 -17
-20 -36 -20 -5 0 -9 11 -9 25 0 14 4 25 10 25 6 0 6 9 1 23 -8 20 -4 25 34 40
38 16 69 53 69 82 0 6 8 33 17 60 32 93 58 275 40 275 -3 0 -7 12 -8 27 -1 19
1 22 8 12 8 -12 12 -11 24 5 11 15 12 23 3 33 -6 8 -17 12 -23 9 -7 -2 -18 8
-25 22 l-12 27 -11 -22 c-5 -13 -14 -23 -19 -23 -12 0 -10 13 7 37 10 14 12
24 5 28 -5 3 -10 14 -10 23 1 11 7 6 17 -13 8 -16 23 -37 32 -45 21 -19 72
-42 79 -35 3 3 3 6 1 8 -2 2 -23 15 -46 30 -24 15 -43 34 -43 42 0 9 -11 21
-25 27 -14 6 -25 20 -25 31 0 15 -5 18 -25 13 -57 -14 -75 -26 -81 -53 -3 -15
-8 -35 -11 -43 -12 -33 -10 -101 3 -115 12 -12 12 -25 0 -92 -8 -43 -21 -94
-29 -113 -8 -19 -17 -71 -20 -115 -3 -44 -10 -93 -17 -109 -7 -21 -8 -31 0
-36 6 -4 0 -11 -15 -18 -21 -10 -27 -9 -31 2 -10 25 -32 25 -58 1 -33 -30 -27
-72 10 -81 42 -11 19 -83 -26 -84 -9 0 -22 -9 -30 -20 -8 -11 -22 -20 -32 -20
-10 0 -27 -9 -37 -19 -11 -11 -22 -17 -26 -13 -3 3 -8 -4 -12 -16 -3 -12 -9
-22 -14 -22 -22 0 -28 -39 -13 -75 15 -36 14 -37 -3 -31 -12 5 -15 4 -8 -3 20
-20 84 8 136 60 27 27 54 49 59 49 6 0 38 26 70 58 81 79 89 85 106 78 7 -3
14 0 14 6 0 7 5 6 15 -2 13 -11 18 -10 28 4 14 19 51 11 43 -9 -3 -8 5 -16 19
-19 12 -3 33 -17 46 -31 13 -13 33 -25 45 -25 11 0 31 -11 44 -25 18 -20 23
-35 21 -74 -2 -58 12 -73 69 -76 36 -2 40 0 40 21 0 14 6 24 14 24 8 0 16 5
18 12 6 17 71 12 85 -7 17 -24 32 -10 29 28 -4 47 -4 47 -23 40 -10 -4 -14 -2
-9 5 3 6 -16 32 -46 59 -69 63 -108 103 -108 108 0 11 94 -6 109 -19 15 -13
20 -14 36 -2 17 12 18 24 12 135 -5 93 -12 131 -27 161 -15 30 -18 45 -11 59
12 21 17 163 7 180 -5 8 0 8 19 -1 15 -7 24 -17 21 -25 -6 -15 10 -18 19 -3 8
13 45 13 45 1 0 -5 -4 -21 -10 -35 -8 -23 -13 -25 -35 -16 -14 5 -25 7 -25 5
0 -3 11 -10 24 -15 18 -7 23 -15 20 -32 -4 -20 -3 -21 4 -3 6 13 20 20 47 22
21 1 52 7 67 14 16 6 31 9 35 5 3 -3 0 -6 -8 -7 -8 -1 -3 -4 11 -8 14 -4 24
-13 22 -19 -1 -7 1 -11 5 -10 18 5 53 -25 69 -57 9 -20 18 -34 21 -32 2 3 -2
16 -8 30 -11 24 -8 30 37 76 26 27 52 47 56 45 4 -3 8 2 8 11 0 19 17 38 44
48 16 6 16 10 5 24 -11 13 -11 15 -1 9 14 -8 27 -37 39 -84 6 -25 5 -26 -13
-12 -15 12 -14 9 4 -14 12 -16 23 -44 23 -65 1 -36 1 -36 8 -6 3 17 12 30 19
29 6 -1 33 -2 58 -2 l47 -2 -25 -32 c-14 -18 -33 -36 -44 -42 -10 -6 -31 -18
-47 -29 -15 -10 -43 -19 -61 -21 -18 -2 -39 -7 -47 -12 -20 -13 -32 -11 -47 6
-11 13 -13 9 -8 -24 3 -21 13 -44 24 -52 10 -7 27 -31 37 -54 16 -36 17 -46 6
-73 -7 -18 -15 -42 -18 -54 -7 -32 6 -95 18 -87 10 6 39 -13 39 -27 0 -4 -6
-14 -13 -21 -7 -7 -22 -26 -32 -41 l-18 -28 27 5 c15 3 36 17 48 31 14 19 28
25 47 23 33 -4 39 -31 9 -46 -13 -6 -17 -11 -10 -11 27 -2 9 -20 -35 -35 -41
-14 -48 -14 -55 -1 -7 12 -20 8 -76 -21 -88 -48 -90 -50 -47 -64 32 -11 34
-13 19 -24 -9 -7 -14 -18 -10 -24 4 -6 2 -22 -5 -34 l-12 -23 23 20 c22 19 23
19 17 1 -4 -10 -2 -25 4 -32 13 -16 59 -19 59 -4 0 15 19 12 36 -5 14 -13 12
-16 -13 -26 -15 -6 -36 -11 -45 -12 -13 -1 -14 -4 -6 -15 9 -11 6 -12 -18 -6
-16 4 -39 10 -50 15 -12 4 -31 5 -41 3 -25 -7 -54 21 -46 44 5 14 3 14 -9 -2
-8 -10 -20 -16 -26 -12 -16 9 -19 -13 -8 -51 12 -37 25 -41 50 -14 13 15 26
17 64 13 26 -2 61 -12 77 -20 17 -9 47 -16 68 -16 49 0 46 -22 -5 -49 -37 -18
-50 -37 -27 -37 7 0 9 -12 5 -34 -6 -31 -3 -36 27 -55 19 -12 46 -21 59 -21
51 0 89 -12 84 -26 -4 -12 0 -11 24 1 38 20 51 19 43 -2 -9 -24 -40 -64 -50
-65 -4 0 -17 -5 -28 -11 -11 -6 -26 -12 -34 -13 -8 -2 -18 -8 -22 -16 -4 -7
-11 -9 -15 -5 -4 4 -14 -2 -22 -14 -10 -15 -17 -18 -25 -10 -16 16 -37 13 -37
-4 0 -8 -4 -16 -10 -16 -19 -3 -25 -5 -48 -17 -20 -12 -25 -10 -48 18 -15 17
-29 29 -31 26 -8 -8 -31 18 -27 29 6 15 -12 70 -22 68 -5 -1 -10 14 -11 33 -2
38 -23 94 -35 94 -5 0 -8 8 -8 18 -1 17 -22 52 -33 52 -4 0 -4 -7 0 -15 3 -9
-1 -35 -10 -58 -16 -44 -30 -95 -32 -112 0 -5 -4 -16 -8 -22 -5 -7 -6 -17 -3
-22 4 -5 3 -11 -2 -13 -13 -5 -41 -105 -35 -126 2 -11 0 -23 -5 -26 -7 -4 -7
-17 -2 -36 8 -28 6 -34 -12 -31 -9 1 -4 -62 6 -78 4 -6 1 -11 -7 -11 -20 0
-28 -48 -11 -65 19 -18 18 -26 -3 -18 -10 4 -14 2 -10 -5 4 -6 2 -12 -5 -15
-7 -2 -3 -3 8 -1 20 4 21 1 14 -31 -4 -19 -5 -36 -2 -39 3 -4 -2 -6 -11 -6 -9
0 -19 -5 -23 -12 -5 -8 -2 -9 10 -5 14 6 16 3 10 -16 -18 -57 -24 -67 -46 -67
-21 0 -21 -1 -3 -13 12 -10 14 -16 7 -21 -7 -4 -12 -12 -12 -18 0 -6 6 -6 15
2 9 7 18 10 22 6 3 -3 1 -6 -5 -6 -20 0 -13 -27 14 -59 14 -17 23 -31 21 -31
-19 0 -57 22 -57 32 -1 14 -120 88 -142 88 -16 0 -90 26 -132 46 -31 14 -31
14 -7 -3 13 -10 45 -25 70 -34 43 -15 59 -36 38 -50 -5 -4 -9 -18 -9 -33 0
-14 -4 -26 -8 -26 -4 0 -5 -11 -2 -25 2 -14 9 -25 14 -25 6 0 8 -7 4 -15 -3
-8 0 -14 7 -12 7 1 12 -8 11 -22 l-1 -24 19 22 c10 13 18 30 18 38 0 8 4 12 9
9 9 -6 26 22 22 37 -1 5 3 6 8 2 13 -7 2 -36 -18 -52 -14 -11 -14 -12 0 -13 8
0 20 5 27 10 6 6 10 7 7 4 -3 -4 1 -14 8 -23 11 -14 10 -15 -7 -1 -18 14 -18
13 -11 -10 10 -33 13 -36 27 -22 7 7 17 12 22 12 6 0 3 -5 -7 -11 -18 -10 -18
-12 3 -34 12 -13 19 -28 15 -34 -10 -17 -28 -13 -21 5 3 8 2 12 -3 9 -6 -3
-14 3 -20 12 -5 10 -13 14 -17 10 -4 -4 4 -20 18 -35 14 -15 30 -35 35 -45 9
-17 11 -17 23 -2 11 13 11 15 0 13 -7 -2 -15 3 -17 10 -8 21 28 10 41 -12 6
-11 19 -28 29 -38 10 -10 14 -24 11 -30 -6 -9 -9 -8 -12 1 -7 20 -41 51 -46
42 -3 -4 19 -33 48 -65 31 -33 56 -52 58 -45 3 8 11 10 22 6 10 -4 14 -12 10
-19 -4 -7 -4 -10 1 -6 4 4 14 3 22 -3 23 -19 14 4 -12 31 -20 21 -23 31 -16
55 l8 30 15 -45 16 -45 1 42 c1 23 -4 43 -10 45 -5 2 -7 11 -3 21 11 30 36
-29 28 -69 -4 -23 -2 -34 5 -34 7 0 11 6 10 13 -3 26 2 38 13 34 7 -2 13 -8
13 -13 0 -5 4 -15 8 -22 11 -17 18 -72 11 -84 -4 -6 -12 1 -18 14 -6 12 -20
24 -31 26 -11 3 -17 1 -12 -4 4 -4 0 -15 -9 -25 -9 -10 -20 -37 -24 -60 -7
-36 -5 -42 11 -46 18 -5 19 -33 2 -83 -2 -8 -7 -53 -9 -100 -6 -94 -10 -125
-19 -140 -4 -7 71 -10 226 -10 209 0 233 2 246 17 14 17 14 17 8 -2 -4 -13 -3
-16 3 -10 6 6 12 19 15 30 3 15 5 13 6 -8 l1 -27 521 1 c436 1 519 3 515 15
-8 20 19 80 29 64 4 -7 2 -16 -5 -20 -9 -6 -9 -9 -1 -15 7 -3 9 -15 6 -26 -6
-18 18 -19 1039 -19 l1046 0 0 2060 0 2060 -3090 0 -3090 0 0 -555z m3698 465
c9 -5 33 -16 53 -24 32 -12 62 -56 38 -56 -21 0 -5 -27 31 -52 22 -15 40 -33
40 -39 0 -6 -14 1 -30 15 -18 15 -38 23 -48 20 -14 -5 -15 -4 -2 5 9 7 10 11
3 11 -6 0 -15 -5 -18 -11 -11 -16 -13 -59 -4 -53 11 7 18 -11 24 -61 3 -22 6
-46 7 -52 1 -13 38 -19 38 -6 0 3 -8 16 -17 27 -13 16 -11 15 9 -3 15 -13 25
-27 23 -32 -3 -4 7 -20 22 -35 l27 -27 -29 7 c-17 4 -40 14 -52 22 -13 8 -26
15 -30 16 -16 3 -34 28 -28 38 4 6 1 9 -6 8 -6 -2 -14 3 -16 10 -3 7 -1 12 4
11 20 -4 24 2 12 17 -7 9 -12 33 -10 54 2 27 -2 41 -14 48 -9 5 -16 12 -16 15
4 27 -2 39 -21 46 -21 8 -19 12 15 24 10 4 16 3 13 -2 -3 -5 1 -12 10 -15 23
-9 24 -8 24 13 0 31 -53 42 -89 19 -16 -10 -18 -15 -8 -32 6 -12 16 -39 22
-61 6 -22 16 -39 22 -38 6 1 13 -9 16 -24 l5 -25 -25 26 c-14 15 -27 42 -30
59 -7 50 -28 76 -55 69 -20 -5 -21 -3 -10 10 10 13 10 17 -3 22 -27 10 -16 21
23 23 26 2 33 0 22 -6 -8 -5 -19 -7 -25 -4 -5 3 -5 0 2 -7 15 -17 45 4 36 26
-6 16 19 19 45 4z m-425 -203 c10 -10 22 -15 27 -12 6 4 24 -4 41 -15 38 -28
50 -20 13 9 l-27 21 26 0 c19 0 25 -4 21 -14 -3 -8 0 -17 5 -21 6 -3 8 -11 5
-17 -4 -6 1 -8 14 -4 11 4 23 2 26 -3 10 -16 -31 -23 -56 -10 -15 8 -23 8 -26
1 -4 -13 -57 5 -99 35 -38 28 -44 29 -36 6 6 -16 5 -16 -10 -4 -9 7 -14 18
-10 25 4 6 -1 5 -9 -2 -15 -12 -14 -16 9 -43 26 -29 57 -42 34 -15 -8 10 -9
16 -1 21 5 3 10 1 10 -4 0 -6 6 -11 14 -11 9 0 12 -7 9 -18 -3 -14 5 -20 36
-28 23 -6 41 -7 41 -3 0 14 30 10 30 -3 1 -7 17 -31 36 -53 33 -37 36 -36 17
13 -10 27 2 11 37 -48 29 -49 29 -53 8 -32 -13 12 -28 22 -33 22 -4 0 -23 18
-42 40 -19 22 -42 40 -50 40 -14 0 -13 -3 3 -22 l19 -23 -22 19 c-13 10 -20
22 -18 27 9 13 -39 6 -54 -9 -12 -12 -11 -13 4 -10 11 2 19 -4 21 -15 2 -13
-2 -16 -17 -12 -22 7 -23 -1 -4 -35 23 -41 17 -47 -14 -12 -39 42 -54 42 -47
0 l6 -33 -16 35 c-9 19 -23 50 -30 68 l-14 32 30 -15 c16 -8 34 -23 39 -32 8
-14 10 -15 11 -3 0 15 -57 60 -76 60 -11 1 -62 39 -51 40 5 0 16 -4 25 -9 27
-13 84 -22 77 -12 -3 6 -30 22 -60 37 -49 25 -59 27 -87 16 -17 -6 -34 -10
-36 -7 -7 7 69 35 79 29 12 -7 11 23 -2 49 -10 21 -10 21 5 3 9 -11 16 -25 16
-32 0 -6 9 -14 20 -17 16 -4 20 0 20 18 0 20 7 25 35 31 21 4 33 11 29 18 -3
6 3 0 13 -14 10 -13 26 -33 36 -43z m1976 -591 c9 -8 41 -19 71 -25 30 -7 62
-19 72 -28 12 -11 29 -14 57 -10 47 6 151 -14 183 -36 13 -8 31 -28 40 -44 17
-29 17 -31 -5 -50 -31 -28 -109 -42 -154 -28 -53 17 -26 -77 38 -135 34 -30
47 -65 40 -105 -6 -27 -12 -31 -70 -46 -34 -9 -74 -22 -87 -28 -35 -16 -58
-14 -82 7 -18 16 -22 33 -26 99 -5 94 -23 128 -118 230 -32 34 -58 65 -59 70
0 4 -3 19 -5 33 -8 43 3 65 42 79 27 10 33 16 23 22 -11 7 -10 9 5 9 11 0 27
-6 35 -14z m-366 -98 c28 1 57 -4 64 -10 8 -6 16 -8 20 -4 11 11 43 -26 43
-49 0 -31 -24 -48 -60 -43 -16 3 -30 1 -30 -4 0 -4 -9 -8 -19 -8 -11 0 -26 -6
-34 -14 -8 -9 -24 -12 -36 -9 -13 3 -21 1 -21 -7 0 -6 -11 2 -25 18 -14 17
-25 37 -25 46 0 9 -4 16 -9 16 -4 0 -6 12 -3 26 5 26 57 58 75 47 4 -3 31 -5
60 -5z m-496 -204 c30 -14 53 -30 53 -39 0 -14 17 -20 48 -16 43 6 63 -57 29
-92 -27 -27 -57 -35 -98 -26 -21 5 -58 10 -83 11 -40 1 -44 3 -33 17 9 11 9
13 0 8 -19 -12 -33 26 -26 69 6 43 20 67 34 58 11 -6 12 10 2 20 -4 3 -8 16
-10 27 -3 19 -2 20 14 3 10 -9 41 -28 70 -40z m68 -384 c3 -11 10 -20 15 -20
5 0 8 -33 5 -72 -2 -46 3 -107 14 -163 22 -112 18 -135 -19 -135 -26 0 -28 3
-34 61 -5 39 -3 66 3 72 7 7 7 15 1 22 -19 22 -40 231 -26 245 16 16 34 12 41
-10z m-1355 -190 c15 -11 29 -17 32 -15 2 3 18 1 35 -4 17 -5 37 -5 47 1 12 7
16 6 14 -4 -2 -9 8 -12 32 -11 19 1 29 0 23 -3 -7 -3 -13 -11 -13 -16 0 -6 3
-8 7 -5 6 6 19 -12 39 -52 4 -8 2 -17 -4 -19 -7 -2 -12 -10 -12 -18 0 -8 6
-11 16 -7 9 3 5 -5 -10 -21 -13 -15 -22 -34 -20 -41 3 -7 1 -16 -5 -19 -5 -4
-12 3 -16 14 -3 11 -11 20 -16 20 -6 0 -8 -9 -4 -19 4 -14 0 -21 -15 -26 -11
-4 -18 -10 -15 -15 3 -4 -7 -8 -23 -7 -61 1 -65 -1 -47 -19 9 -10 14 -25 12
-36 -3 -10 0 -21 6 -26 17 -10 18 -42 1 -42 -7 0 -16 5 -19 10 -3 6 -13 10
-21 10 -22 0 -56 39 -61 71 -2 16 0 29 6 29 6 0 9 12 6 28 -3 15 -7 43 -10 62
l-5 35 10 -31 c6 -19 19 -34 31 -37 20 -5 20 -5 4 13 -9 10 -18 25 -19 34 -1
9 -19 39 -40 66 -24 31 -35 54 -30 62 5 7 9 19 11 27 2 14 21 31 36 31 5 0 21
-9 37 -20z m1016 -77 c-1 -71 -5 -84 -39 -140 -48 -79 -62 -93 -88 -86 -15 4
-19 11 -15 27 18 72 33 114 48 136 13 18 15 26 6 31 -8 5 -3 11 15 18 16 6 33
11 38 11 5 0 9 4 9 10 0 5 -7 7 -15 4 -8 -4 -15 -2 -15 4 0 13 39 62 50 62 4
0 7 -35 6 -77z m1537 -55 c27 -21 59 -38 73 -38 34 0 48 -32 25 -57 -11 -11
-21 -28 -22 -38 -5 -25 -59 -40 -59 -17 0 11 -3 13 -8 6 -4 -6 -24 -17 -44
-23 -21 -7 -38 -18 -38 -26 0 -7 -7 -15 -15 -19 -8 -3 -20 -17 -27 -31 -6 -13
-20 -27 -32 -30 -12 -4 -32 -12 -45 -18 -19 -9 -25 -9 -28 1 -3 6 -20 12 -38
12 -19 0 -41 8 -50 17 -19 18 -103 22 -114 6 -7 -12 -62 -23 -55 -12 3 5 -8
11 -23 15 -15 4 -32 10 -38 13 -5 4 -22 7 -37 6 -16 0 -28 3 -28 9 0 5 -3 6
-6 3 -7 -7 -64 23 -64 33 1 17 31 42 45 37 8 -4 15 -3 15 1 0 4 20 7 43 7 39
0 51 7 108 59 81 74 104 84 186 78 66 -4 92 3 141 40 33 24 76 13 135 -34z
m-1118 -248 c3 -5 19 -10 35 -10 16 0 32 -5 35 -10 4 -6 22 -9 41 -7 19 3 34
1 34 -3 0 -4 10 -10 23 -14 12 -3 30 -19 40 -36 10 -16 22 -30 26 -30 4 0 21
-11 37 -25 16 -14 35 -25 42 -25 6 0 12 -5 12 -11 0 -7 17 -10 46 -7 42 3 48
0 56 -21 8 -24 8 -24 -10 -8 -20 18 -52 23 -52 8 0 -5 8 -12 18 -14 10 -3 5
-5 -12 -6 -16 0 -27 -4 -23 -7 15 -15 -64 -61 -84 -48 -5 3 -9 0 -9 -5 0 -6
-5 -11 -12 -11 -25 0 -88 -35 -89 -49 -2 -32 3 -76 9 -82 4 -4 36 -9 72 -12
85 -7 111 -18 158 -67 22 -22 44 -40 50 -40 17 0 72 -60 72 -78 0 -8 10 -26
23 -40 17 -19 22 -37 24 -89 1 -35 7 -71 13 -78 7 -8 9 -19 5 -25 -4 -6 -3
-10 2 -9 17 5 61 -24 72 -47 9 -20 7 -28 -8 -43 -22 -22 -58 -36 -83 -32 -24
3 -23 -6 3 -19 12 -7 25 -8 32 -2 7 5 21 4 35 -3 16 -9 19 -14 10 -17 -10 -4
-10 -8 2 -20 8 -8 21 -13 28 -10 6 2 12 -1 12 -8 0 -6 5 -8 10 -5 10 6 119
-38 130 -53 3 -4 22 -16 42 -26 25 -13 35 -23 29 -30 -6 -8 3 -11 30 -11 23
-1 46 -8 56 -17 15 -16 15 -17 -6 -11 -17 4 -20 2 -15 -11 4 -10 1 -16 -9 -16
-8 0 -21 -7 -28 -17 -13 -15 -12 -15 8 -5 12 7 31 12 42 12 12 0 21 5 21 10 0
6 4 10 10 10 5 0 7 -7 3 -17 -5 -13 -2 -15 15 -11 14 4 22 2 22 -7 0 -7 -17
-15 -40 -18 -49 -6 -154 -55 -195 -91 -16 -14 -33 -26 -37 -26 -4 0 -10 -9
-13 -20 -3 -11 -11 -20 -17 -20 -6 0 -5 6 3 16 10 13 10 17 -1 24 -12 7 -9 15
15 40 31 32 51 40 41 15 -8 -21 37 12 54 40 11 17 10 17 -12 -2 -30 -28 -48
-30 -23 -3 10 11 16 22 14 25 -7 7 -102 -74 -121 -104 -20 -29 -24 -22 -7 12
12 24 88 97 101 97 4 0 8 5 8 10 0 17 -16 11 -56 -20 -50 -41 -79 -37 -79 10
0 19 6 41 15 48 13 11 11 11 -7 2 -13 -6 -22 -18 -21 -28 3 -28 -23 -82 -40
-82 -13 0 -13 2 1 18 21 23 29 70 14 78 -7 4 -9 4 -5 0 3 -4 2 -21 -4 -38 -7
-19 -13 -26 -18 -18 -4 6 -11 11 -16 10 -5 -1 -10 4 -12 10 -3 8 3 10 17 5 25
-8 29 10 4 19 -11 5 -22 1 -30 -10 -18 -24 -16 -32 6 -46 15 -9 17 -15 9 -25
-7 -9 -7 -13 0 -13 7 0 4 -12 -6 -29 -9 -16 -20 -27 -25 -24 -4 2 -3 11 3 18
6 7 13 26 16 42 l4 28 -24 -27 c-14 -16 -29 -36 -35 -45 -5 -10 -13 -15 -16
-11 -4 4 2 19 14 34 19 24 31 98 14 80 -5 -4 -8 -12 -8 -18 0 -10 -78 -58 -93
-58 -8 0 -42 53 -42 65 0 3 8 4 18 2 22 -7 79 58 61 69 -8 4 -9 3 -5 -4 5 -8
-2 -12 -18 -12 -27 0 -35 -15 -13 -23 6 -3 3 -6 -9 -6 -11 -1 -25 -6 -31 -12
-7 -7 -15 -3 -26 15 -16 23 -16 26 1 42 16 16 15 17 -10 11 -18 -5 -28 -2 -31
7 -4 9 0 12 12 9 12 -3 20 2 24 16 4 17 2 19 -13 11 -34 -18 -33 -10 1 20 40
35 34 38 -15 9 l-35 -20 -25 22 c-14 12 -23 26 -20 31 3 4 1 8 -4 8 -5 0 -31
26 -56 58 -26 31 -89 100 -139 152 -121 124 -167 183 -141 178 10 -2 19 -8 19
-15 0 -21 10 -22 35 -2 l25 19 -36 33 c-172 155 -173 158 -188 306 -7 67 -9
130 -6 141 4 13 22 22 60 30 52 11 55 13 55 41 0 16 -4 29 -10 29 -13 0 -13
55 1 103 10 37 10 37 64 37 30 0 57 -4 60 -10z m41 -890 c71 -74 157 -171 190
-215 61 -80 174 -243 174 -250 0 -2 -14 -3 -31 -3 -17 1 -35 -5 -40 -13 -7
-11 -9 -11 -9 -1 0 8 9 16 20 19 22 6 27 23 8 23 -9 0 -8 4 2 10 13 9 11 14
-11 33 -14 13 -28 31 -32 40 -12 31 -36 15 -71 -48 -16 -27 -16 -19 0 20 3 8
1 15 -5 15 -6 0 -11 -4 -11 -10 0 -5 -5 -10 -12 -10 -6 0 -3 9 7 20 14 16 20
17 27 8 6 -10 8 -10 8 1 0 8 8 23 18 34 9 11 11 17 3 12 -10 -6 -12 -2 -6 14
8 27 -11 28 -25 1 -8 -14 -8 -20 0 -20 6 0 9 -4 5 -10 -3 -5 -11 -7 -18 -4 -7
2 -20 -8 -30 -23 l-17 -28 6 28 c4 17 2 27 -5 27 -6 0 -11 -7 -11 -15 0 -9 -7
-18 -15 -21 -8 -4 -12 -11 -8 -18 3 -6 3 -8 -2 -4 -11 10 -47 -11 -40 -23 4
-5 1 -9 -5 -9 -6 0 -8 -4 -5 -10 3 -5 1 -10 -4 -10 -6 0 -11 12 -11 26 0 19
-4 25 -14 21 -10 -4 -13 -1 -9 9 3 7 0 14 -6 14 -6 0 -11 -5 -11 -11 0 -6 -7
-4 -15 5 -8 8 -15 18 -15 22 0 3 7 1 15 -6 14 -12 19 -7 16 15 -1 6 9 -3 22
-19 21 -26 25 -28 47 -16 28 15 32 19 82 82 33 40 35 47 21 53 -15 5 -15 7 -3
15 8 6 10 10 4 10 -18 0 -24 -12 -13 -26 13 -16 4 -34 -17 -34 -8 0 -13 -3
-12 -7 2 -5 -12 -24 -31 -43 -19 -19 -32 -27 -28 -18 3 9 1 19 -6 21 -7 2 -8
8 -4 13 4 5 12 2 18 -6 7 -12 10 -11 15 7 4 13 10 21 14 18 4 -2 7 4 6 14 -1
18 -28 51 -43 51 -5 0 -8 17 -8 38 0 34 -2 38 -24 37 -21 0 -26 -5 -27 -30 -2
-39 -21 -85 -34 -85 -5 0 -10 5 -10 10 0 6 3 10 8 10 4 0 12 15 18 33 7 25 7
36 -2 45 -9 9 -14 8 -17 -1 -2 -7 -8 -9 -12 -5 -4 4 -2 14 4 22 10 12 10 19
-2 36 -9 14 -17 17 -22 11 -3 -6 -1 -11 4 -11 6 0 11 -5 11 -11 0 -7 -10 -5
-26 6 -24 16 -25 16 -16 -2 5 -10 8 -32 7 -50 -3 -36 18 -64 29 -38 3 8 1 15
-4 15 -6 0 -10 12 -10 28 0 27 0 27 18 -8 l18 -35 -30 -37 c-16 -21 -33 -38
-38 -38 -5 0 0 10 12 22 35 38 26 48 -18 21 l-27 -17 23 23 c25 25 20 50 -6
29 -15 -11 -15 -11 -5 3 7 9 9 20 5 24 -4 5 -1 5 6 1 7 -4 12 -1 12 8 0 27
-29 17 -36 -11 -4 -16 -14 -36 -23 -47 -9 -10 -15 -21 -14 -25 4 -9 -8 -45
-17 -51 -4 -3 -26 -41 -49 -85 -22 -43 -41 -72 -41 -63 0 8 23 59 50 112 28
53 50 105 50 116 0 10 4 21 9 24 5 3 7 29 6 57 -2 40 0 49 11 45 12 -4 12 -2
4 14 -11 21 -3 51 9 32 3 -5 14 1 24 14 16 21 16 23 1 17 -15 -6 -15 -4 1 20
9 15 21 27 26 27 13 0 11 13 -4 34 -12 16 -14 16 -26 2 -12 -14 -12 -16 3 -10
23 9 21 -19 -4 -41 -12 -10 -18 -25 -16 -32 3 -7 1 -13 -3 -13 -11 0 -25 31
-22 49 1 7 -2 10 -8 7 -5 -3 -2 12 6 34 11 28 19 37 25 28 6 -10 8 -9 8 3 0 9
-9 28 -20 42 -22 28 -28 50 -7 27 8 -8 72 -76 143 -150z"/>
<path d="M2463 2639 c-19 -19 -16 -47 5 -58 14 -7 25 -4 47 15 15 13 30 23 31
21 2 -2 -1 -19 -6 -37 -12 -41 -5 -47 67 -56 54 -6 64 -24 15 -24 -15 0 -34
-5 -42 -10 -13 -8 -12 -10 3 -10 16 0 16 -2 2 -23 -19 -30 -12 -37 40 -37 50
0 95 30 95 63 0 13 -3 17 -8 11 -5 -9 -11 -8 -20 2 -10 12 -10 14 2 14 22 0
36 31 25 53 -26 48 -226 108 -256 76z"/>
<path d="M2310 1906 c-13 -13 -13 -61 -1 -84 17 -30 27 -60 30 -87 0 -5 8 1
17 14 10 14 23 21 35 18 11 -3 20 1 22 12 4 13 5 13 6 -2 0 -10 6 -15 11 -12
10 6 14 -15 11 -44 -2 -7 2 -10 9 -6 6 4 4 -7 -5 -25 -9 -17 -14 -34 -11 -37
5 -6 43 52 76 117 12 25 27 48 32 51 14 9 -3 41 -19 35 -9 -4 -11 -2 -7 6 5 8
-1 9 -22 4 -16 -4 -32 -12 -35 -18 -4 -6 -11 -8 -17 -4 -6 3 -12 1 -14 -6 -3
-7 -15 8 -29 33 -19 35 -30 44 -52 44 -15 1 -32 -4 -37 -9z"/>
<path d="M1436 618 c3 -88 0 -118 -9 -118 -8 0 -8 -3 2 -9 7 -5 10 -14 7 -20
-4 -6 -2 -11 4 -11 6 0 8 -5 4 -12 -4 -7 -6 -33 -5 -59 1 -28 -2 -50 -9 -54
-9 -6 -9 -9 0 -15 8 -5 9 -13 4 -21 -4 -8 -9 -38 -10 -69 -1 -30 -3 -55 -4
-55 -1 0 -3 -25 -6 -55 -3 -30 -6 -70 -8 -87 -3 -30 -1 -33 24 -33 26 0 29 5
43 63 43 170 59 249 55 272 -3 13 -2 22 2 20 12 -7 16 54 9 121 -6 58 -6 59
-9 14 -2 -25 -4 -52 -5 -60 -1 -8 -3 -21 -4 -28 0 -7 -5 -11 -9 -8 -4 2 -8 -3
-9 -12 0 -9 -6 -44 -12 -77 -7 -33 -13 -67 -14 -76 -1 -9 -8 -22 -16 -29 -12
-12 -13 -9 -8 21 4 19 7 91 9 162 1 81 6 127 12 127 7 0 6 4 -1 8 -7 4 -15 32
-18 62 l-6 55 48 30 c26 17 49 37 51 45 3 8 -14 -3 -38 -23 -24 -20 -47 -37
-50 -37 -4 0 -12 19 -17 43 -8 33 -9 18 -7 -75z"/>
<path d="M1384 540 c-4 -22 -10 -43 -15 -46 -4 -2 -6 -11 -2 -19 3 -8 0 -15
-7 -15 -7 0 -10 -8 -7 -20 3 -10 0 -21 -7 -23 -6 -2 -7 -8 -3 -13 4 -5 12 -2
16 5 6 9 11 10 15 3 7 -11 -27 -35 -36 -26 -3 2 -11 -9 -18 -26 -15 -37 -7
-51 12 -18 16 29 48 34 41 7 -7 -26 -23 -34 -23 -13 0 16 -1 16 -15 -2 -8 -10
-15 -31 -15 -46 0 -15 -4 -29 -8 -32 -5 -3 -7 7 -4 23 2 16 -2 32 -11 39 -8 7
-13 22 -10 32 3 12 0 20 -8 20 -7 0 -10 -3 -6 -6 3 -3 -8 -33 -24 -67 -16 -34
-29 -71 -29 -82 0 -12 -5 -26 -12 -33 -7 -7 -8 -12 -2 -12 6 0 17 11 24 25 22
42 23 21 1 -53 -23 -77 -27 -107 -11 -82 13 20 13 -1 0 -34 -9 -24 -8 -26 20
-26 25 0 31 5 39 38 6 21 17 46 25 57 15 19 15 19 16 -11 0 -17 -7 -37 -15
-44 -23 -19 -18 -40 10 -40 22 0 25 4 25 35 0 25 4 35 16 35 11 0 14 -5 9 -17
-17 -41 -17 -53 -2 -53 17 0 27 29 27 83 0 23 -5 37 -12 37 -9 0 -10 2 -2 8 6
4 15 31 19 61 6 44 5 52 -6 46 -9 -6 -8 -2 2 11 9 10 17 26 17 34 1 14 0 207
-1 273 0 41 -16 32 -23 -13z"/>
<path d="M1900 397 c0 -7 -9 -29 -19 -50 -10 -20 -15 -37 -11 -37 5 0 11 6 13
13 3 7 6 5 6 -6 1 -10 -5 -20 -13 -23 -9 -3 -12 -12 -9 -21 4 -10 2 -14 -4
-10 -6 4 -16 -12 -23 -36 -8 -23 -17 -46 -21 -51 -4 -5 -5 -15 -2 -22 3 -8 0
-14 -5 -14 -13 0 -27 -35 -31 -77 0 -7 -7 -10 -15 -7 -15 6 -36 -24 -36 -48 1
-7 7 0 16 17 l14 30 -5 -28 c-5 -27 -5 -27 53 -27 53 0 60 2 70 26 7 14 8 23
2 19 -17 -10 -11 17 6 30 10 6 19 27 21 46 2 19 8 36 13 37 6 2 10 8 10 13 0
6 -4 8 -10 4 -5 -3 -3 16 5 42 18 59 18 56 1 50 -10 -4 -13 -1 -9 8 3 8 9 13
13 10 12 -7 20 36 10 54 -5 10 -4 24 1 34 13 22 0 22 -17 0 -15 -21 -18 -37
-5 -29 20 13 21 -28 1 -46 -16 -15 -20 -16 -20 -3 0 8 7 15 15 15 22 0 19 18
-4 25 -18 5 -19 8 -5 40 8 21 10 35 4 35 -5 0 -10 -6 -10 -13z"/>
</g>
</svg>