<?xml version="1.0" standalone="no"?>
<!DOCTYPE svg PUBLIC "-//W3C//DTD SVG 20010904//EN"
 "http://www.w3.org/TR/2001/REC-SVG-20010904/DTD/svg10.dtd">
<svg version="1.0" xmlns="http://www.w3.org/2000/svg"
 width="512.000000pt" height="320.000000pt" viewBox="0 0 512.000000 320.000000"
 preserveAspectRatio="xMidYMid meet">
<metadata>
Created by potrace 1.15, written by Peter Selinger 2001-2017
</metadata>
<g transform="translate(0.000000,320.000000) scale(0.100000,-0.100000)"
fill="#000000" stroke="none">
<path d="M0 2960 c0 -132 4 -240 9 -240 12 0 21 36 21 87 0 47 8 57 32 39 13
-9 18 -31 20 -87 l3 -74 43 -6 c23 -3 70 -1 103 4 40 7 80 7 115 0 53 -9 54
-9 85 23 18 18 36 31 42 27 5 -3 3 -9 -4 -14 -10 -6 -11 -9 -1 -9 6 0 12 -7
12 -16 0 -34 45 -61 111 -68 193 -20 183 -21 212 8 15 15 27 30 28 34 0 4 2
37 4 74 4 79 12 111 28 105 22 -7 30 -59 18 -108 -10 -38 -10 -53 2 -80 24
-58 50 -73 136 -80 43 -4 87 -10 98 -13 14 -5 30 1 51 18 25 22 30 33 31 76 2
91 57 134 102 79 28 -34 43 -27 35 16 -4 19 -2 36 4 40 6 4 7 22 4 46 -5 27
-3 39 5 39 14 0 6 122 -9 151 -11 20 -3 27 55 53 40 17 95 77 95 103 0 11
-129 13 -745 13 l-745 0 0 -240z m499 146 c40 -77 13 -116 -61 -85 -16 6 -44
13 -61 14 -18 2 -54 10 -82 19 -27 10 -68 22 -90 28 -96 27 -72 54 39 44 135
-12 188 -10 198 8 15 27 34 18 57 -28z"/>
<path d="M2665 3070 c3 -5 -1 -10 -9 -10 -17 0 -31 -18 -21 -28 3 -3 10 0 15
8 8 12 10 10 10 -7 0 -13 6 -23 13 -23 23 0 27 12 9 26 -16 12 -16 13 0 14 22
0 25 -6 32 -60 6 -41 5 -43 -8 -26 -19 23 -65 48 -77 40 -5 -3 -9 2 -9 11 0
12 -5 15 -16 11 -12 -5 -15 -2 -10 9 3 9 2 13 -4 10 -6 -3 -10 -14 -10 -24 0
-10 -11 -28 -25 -41 -23 -22 -25 -22 -50 -6 -24 16 -26 16 -32 -1 -3 -10 -8
-21 -10 -25 -2 -5 1 -8 6 -8 6 0 11 7 11 15 0 19 14 19 29 2 8 -10 7 -17 -1
-25 -8 -8 -9 -12 -1 -12 6 0 13 7 17 15 3 8 11 15 17 15 7 0 2 -11 -11 -25
-13 -14 -32 -25 -42 -25 -10 0 -27 -14 -37 -31 l-19 -32 -4 29 c-3 27 -4 26
-14 -13 -8 -31 -8 -41 0 -40 6 1 10 -4 8 -12 -2 -9 4 -12 18 -8 11 3 20 1 20
-4 0 -5 -11 -9 -25 -9 -14 0 -25 4 -25 9 0 4 -11 6 -25 3 -23 -4 -29 -19 -24
-58 1 -10 -24 -23 -33 -18 -14 9 -9 34 7 34 8 0 15 5 15 10 0 6 -4 10 -10 10
-19 0 -10 31 16 57 16 16 20 23 9 19 -9 -3 -18 -6 -21 -6 -2 0 -13 -18 -24
-40 -11 -22 -26 -40 -32 -40 -7 0 -3 -7 8 -15 10 -8 15 -15 10 -15 -5 0 -3 -7
4 -15 12 -15 22 -67 11 -60 -4 2 -12 -9 -19 -24 -7 -15 -19 -28 -27 -28 -20 0
-20 41 0 57 21 18 30 6 10 -13 -8 -9 -11 -18 -7 -21 8 -4 32 34 32 49 0 12
-29 3 -43 -13 -22 -24 -22 -58 -1 -70 10 -6 13 -12 6 -16 -15 -9 -42 22 -35
41 4 11 3 14 -5 9 -20 -12 -14 -32 19 -59 17 -14 26 -28 20 -31 -5 -4 -20 4
-32 16 l-21 23 11 -23 c7 -13 19 -26 27 -29 8 -3 13 -12 10 -19 -5 -13 6 -18
27 -15 4 0 7 -4 7 -9 0 -6 -11 -8 -25 -6 -31 6 -32 -6 -2 -28 12 -9 16 -14 10
-11 -8 4 -13 0 -13 -9 0 -9 -7 -16 -15 -16 -8 0 -15 4 -15 9 0 5 -9 7 -20 4
-11 -3 -20 -10 -20 -15 0 -5 4 -7 9 -3 5 3 12 1 16 -5 4 -6 11 -8 16 -5 5 4 9
4 9 0 0 -3 -20 -14 -44 -24 -46 -20 -67 -56 -65 -110 1 -25 1 -25 9 4 4 17 11
42 14 58 8 32 26 37 20 5 -5 -23 -4 -23 5 -2 12 27 38 46 28 21 -10 -26 10
-30 27 -5 18 25 22 8 5 -23 -5 -11 -15 -16 -21 -13 -7 5 -8 2 -3 -6 6 -9 1
-10 -16 -5 l-24 6 23 -18 c18 -15 20 -21 10 -31 -6 -6 -16 -12 -21 -12 -15 0
-37 -28 -37 -48 0 -28 -11 -34 -28 -14 -8 9 -6 4 3 -12 17 -28 17 -30 -5 -46
-15 -11 -19 -19 -11 -24 6 -4 11 -3 11 2 0 5 11 12 24 14 18 4 22 1 19 -12 -2
-9 -14 -17 -25 -17 -12 -1 -25 -8 -29 -15 -5 -7 -26 -12 -51 -11 -24 0 -49 -4
-57 -11 -12 -9 -13 -8 -6 4 5 10 5 12 -3 5 -5 -5 -12 -19 -14 -30 -2 -14 -16
-23 -46 -30 -24 -6 -46 -15 -50 -21 -4 -5 -32 -22 -62 -37 -30 -15 -46 -25
-35 -21 11 4 31 7 45 6 14 0 33 7 43 15 9 9 20 13 24 9 5 -4 0 -12 -9 -17 -10
-5 -15 -16 -12 -23 6 -15 -33 -43 -43 -32 -3 3 2 8 11 12 9 3 16 11 16 16 0 6
-6 8 -14 5 -8 -3 -17 -1 -20 6 -3 9 -5 8 -5 -1 -1 -7 -5 -11 -10 -7 -5 3 -36
-7 -68 -22 -32 -14 -92 -38 -134 -52 -54 -19 -73 -29 -65 -37 8 -8 22 -6 51 7
47 22 68 24 62 7 -2 -7 -10 -12 -17 -10 -7 2 -22 -6 -34 -16 -17 -15 -76 -42
-92 -42 -10 0 -2 29 9 33 6 2 9 8 5 12 -12 12 -28 -5 -28 -31 0 -24 -31 -64
-49 -64 -6 0 -8 -9 -6 -20 3 -17 0 -19 -22 -14 -21 6 -25 4 -20 -9 7 -17 -18
-42 -50 -50 -28 -6 -30 9 -5 37 17 21 17 21 -5 2 -13 -11 -23 -25 -23 -32 0
-29 -72 -84 -109 -84 -12 0 -21 -4 -21 -10 0 -5 15 -10 33 -10 24 0 28 -3 17
-10 -8 -5 -11 -10 -6 -10 5 0 -1 -9 -13 -19 -20 -18 -21 -20 -4 -23 14 -3 10
-8 -17 -23 -39 -20 -59 -43 -59 -65 0 -11 3 -10 14 4 8 11 17 17 20 14 9 -8
-24 -31 -48 -33 -12 -1 -31 -5 -42 -9 -11 -4 -6 0 10 10 37 21 57 47 44 55
-12 7 8 25 36 32 17 4 16 5 -5 6 -17 1 -37 -12 -64 -39 -21 -22 -35 -40 -32
-40 4 0 -9 -15 -28 -34 -20 -18 -36 -41 -36 -51 0 -9 -13 -34 -28 -54 -15 -20
-36 -49 -47 -66 l-18 -30 21 19 c28 24 28 12 2 -21 -11 -14 -20 -34 -20 -44 0
-10 -5 -21 -12 -25 -7 -5 -8 -3 -3 6 5 8 4 11 -2 7 -5 -3 -16 -25 -23 -49 -7
-24 -17 -47 -22 -52 -12 -15 -10 -38 3 -30 8 5 8 1 0 -14 -6 -12 -16 -24 -22
-28 -7 -4 -7 1 1 16 10 19 9 21 -7 18 -12 -2 -19 -14 -21 -38 -2 -19 -9 -41
-15 -49 -9 -12 -9 -13 0 -7 26 15 5 -32 -28 -65 -14 -14 -19 -31 -17 -56 4
-48 24 -53 32 -9 7 35 28 61 39 49 13 -12 7 -37 -19 -74 -20 -30 -24 -41 -15
-56 9 -16 10 -15 11 8 0 15 11 36 27 50 23 21 25 22 18 4 -4 -11 -10 -29 -13
-40 -4 -17 -2 -16 16 5 l21 25 1 -23 c0 -26 -52 -146 -69 -156 -6 -4 -11 -24
-11 -45 0 -22 -6 -44 -15 -51 -8 -7 -15 -20 -14 -29 0 -13 1 -14 6 -1 3 8 14
26 24 39 11 13 19 34 19 47 0 13 13 45 30 71 16 26 30 54 30 62 0 14 2 14 9 2
6 -10 1 -33 -16 -70 -14 -31 -29 -73 -34 -94 -11 -45 -2 -68 16 -43 11 15 16
13 43 -22 26 -33 30 -44 25 -80 -3 -23 -10 -42 -15 -42 -5 0 -6 -5 -3 -10 3
-6 0 -12 -7 -15 -23 -8 -178 -12 -178 -5 0 4 -18 10 -41 14 -22 4 -50 15 -62
26 -34 32 -78 26 -125 -17 l-40 -38 -4 -93 -4 -92 241 0 242 0 -1 22 c-1 26
32 38 45 16 6 -8 12 -9 16 -3 5 6 16 11 27 13 15 3 18 -1 14 -23 -5 -26 -5
-26 56 -23 35 1 67 8 75 16 13 12 16 12 26 -2 11 -15 148 -16 1549 -16 l1538
0 -6 28 c-3 15 -2 34 3 41 8 12 13 11 30 -10 11 -13 23 -31 26 -39 3 -10 19
-16 45 -17 l41 -2 -7 77 c-4 42 -14 91 -22 107 -19 36 -25 115 -9 115 6 0 21
-10 34 -21 l22 -22 -8 29 c-5 16 -20 55 -35 88 -14 32 -26 64 -26 71 0 12 -51
121 -95 202 -24 46 -36 76 -41 110 -1 12 -10 35 -18 52 -9 16 -16 39 -16 50 0
11 -4 22 -9 25 -11 7 -21 46 -12 46 4 0 14 -11 21 -25 19 -36 25 -22 6 16 -9
18 -16 46 -16 63 0 35 -32 111 -59 141 -16 18 -40 58 -99 170 -8 17 -18 35
-21 41 -20 37 -86 130 -97 137 -8 4 -14 15 -14 24 0 13 3 14 12 5 19 -19 28
-14 17 11 -5 12 -24 30 -41 40 -19 11 -28 22 -24 32 3 10 -19 40 -64 86 -39
39 -70 75 -70 80 0 5 -18 12 -40 15 -26 4 -45 15 -55 30 -9 14 -25 24 -38 23
-20 -1 -20 -2 6 -12 17 -7 27 -18 27 -31 0 -19 -1 -18 -24 3 -14 13 -29 21
-34 17 -5 -3 -15 0 -23 7 -8 7 -12 11 -10 10 2 -1 17 5 34 15 40 23 66 82 60
136 -3 31 -2 37 6 26 6 -8 11 -11 11 -7 0 4 -17 34 -37 65 -38 58 -47 82 -33
82 4 0 11 -11 14 -25 7 -27 23 -34 23 -10 0 8 -5 15 -10 15 -5 0 -7 9 -4 20 3
11 1 20 -5 20 -6 0 -8 13 -6 29 4 24 1 29 -15 25 -15 -3 -17 -1 -7 11 7 8 10
24 7 34 -6 25 20 17 46 -13 l18 -21 -10 22 c-6 12 -19 27 -29 32 -9 6 -13 11
-9 11 4 0 3 9 -3 20 -6 11 -14 19 -18 18 -15 -4 -52 23 -52 38 0 12 5 10 20
-7 25 -30 25 -14 1 36 -15 30 -16 46 -9 73 5 19 7 46 3 61 -4 14 -5 26 -4 26
2 0 -8 12 -21 26 -14 14 -28 24 -32 22 -4 -2 -5 2 -2 10 3 8 1 18 -5 22 -6 3
-11 11 -11 17 0 6 10 3 23 -8 13 -10 11 -7 -4 8 -15 14 -29 34 -32 45 -4 17
-5 17 -6 0 -2 -33 -21 -7 -21 29 0 32 -23 94 -36 94 -2 0 0 -9 6 -19 13 -26
13 -38 -3 -38 -13 0 -15 6 -21 63 -1 18 -16 46 -34 65 -18 19 -30 39 -28 46 7
17 -21 36 -45 30 -15 -4 -18 -2 -10 7 12 14 -5 33 -47 55 -22 12 -23 11 -12
-9 6 -12 9 -28 6 -36 -4 -9 -2 -12 5 -8 23 14 4 -59 -20 -75 -24 -15 -24 -15
-12 7 11 22 6 28 -21 23 -11 -1 -10 13 1 24 5 6 5 19 1 30 -8 19 -9 19 -9 -2
-1 -13 -5 -23 -10 -23 -5 0 -11 -10 -14 -22 -4 -23 -4 -23 -15 2 -9 21 -11 22
-11 5 -1 -18 -2 -18 -17 3 -8 12 -12 26 -9 32 4 6 -1 7 -12 3 -16 -6 -16 -5
-5 9 11 13 11 21 2 39 -9 17 -9 20 0 14 24 -15 4 18 -21 34 -22 15 -23 14 -11
-1 12 -15 10 -15 -25 -2 -64 22 -121 14 -111 -17 6 -17 -15 -39 -37 -39 -8 0
-31 -6 -49 -14 -30 -13 -33 -12 -30 3 3 10 -10 24 -36 41 -22 13 -40 28 -40
32 0 4 -5 8 -11 8 -5 0 -7 -4 -4 -10z m387 -341 c38 -15 67 -46 68 -71 0 -10
5 -18 10 -18 6 0 10 -5 10 -11 0 -7 9 -19 20 -29 11 -9 21 -31 22 -48 1 -18 5
-32 9 -32 4 0 5 -9 2 -20 -3 -12 2 -29 13 -41 17 -19 17 -20 -12 -18 -16 0
-60 -3 -98 -7 -54 -6 -75 -12 -92 -31 -12 -13 -33 -23 -49 -23 -24 0 -26 -3
-20 -22 4 -13 15 -61 26 -108 10 -47 26 -90 34 -96 20 -15 19 -33 -2 -29 -10
1 -33 -6 -51 -17 -28 -17 -37 -18 -62 -8 -37 15 -68 6 -50 -15 6 -7 18 -11 25
-8 8 3 21 -2 29 -10 18 -17 11 -28 -12 -20 -10 4 -13 2 -8 -5 5 -8 0 -12 -12
-12 -22 0 -37 -26 -21 -35 17 -11 0 -21 -33 -19 -32 2 -88 -19 -88 -34 1 -26
18 -31 70 -23 30 5 60 10 65 12 6 1 35 -1 65 -6 30 -5 58 -8 63 -7 11 3 8 -8
-7 -24 -8 -8 -33 -14 -55 -14 -22 0 -42 -4 -46 -10 -3 -5 -12 -7 -20 -3 -8 3
-15 0 -15 -6 0 -11 17 -16 85 -26 22 -3 58 -8 80 -11 48 -6 66 -20 39 -31 -10
-4 -24 -12 -31 -19 -8 -8 -26 -9 -53 -4 -29 5 -40 4 -37 -4 3 -6 -5 -12 -17
-13 -11 -1 -33 -4 -48 -6 -16 -3 -28 -1 -28 4 0 5 -11 11 -25 15 -14 3 -25 10
-25 14 0 5 -10 12 -22 16 -29 9 -57 44 -58 71 0 12 -6 28 -14 35 -7 8 -17 25
-21 38 -10 32 -45 88 -45 73 0 -23 -18 -14 -19 10 -1 45 -4 62 -13 74 -5 6
-10 27 -12 46 -2 19 -7 41 -11 48 -5 8 -4 10 3 5 16 -10 16 26 0 42 -9 9 -8
13 4 17 11 5 15 15 11 35 -2 16 2 40 9 52 7 13 11 27 10 31 -1 5 2 6 8 2 5 -3
10 -12 10 -20 0 -7 14 -18 30 -24 17 -5 30 -14 30 -19 0 -17 57 -33 100 -28
45 6 55 11 55 29 0 7 10 12 22 11 24 -1 38 34 28 67 -7 22 -45 46 -45 29 0 -7
-8 -7 -22 2 -13 6 -63 13 -113 15 -49 2 -90 5 -92 6 -7 8 24 84 39 95 10 7 15
20 12 30 -4 11 -3 13 3 5 6 -9 20 0 47 30 21 23 38 43 37 45 0 1 1 2 4 2 3 0
19 15 36 34 26 30 35 34 62 29 18 -3 40 -10 49 -14 23 -12 40 -3 60 32 10 17
22 27 28 24 5 -3 10 -1 10 5 0 7 5 6 14 -3 8 -8 29 -20 48 -28z m36 -465 c33
-14 35 -17 17 -24 -17 -7 -15 -8 10 -7 17 0 39 7 50 14 11 7 23 13 27 13 14 0
18 -39 6 -65 l-13 -28 -6 24 c-6 22 -7 21 -8 -7 -1 -17 -8 -50 -16 -73 -8 -22
-13 -41 -11 -41 2 0 -2 -17 -9 -37 -9 -27 -19 -38 -34 -38 -11 0 -23 -4 -27
-8 -8 -7 -54 38 -54 53 0 5 5 12 10 15 11 7 6 149 -7 181 -5 13 -3 16 10 11
22 -8 22 9 0 22 -17 10 -17 10 0 11 10 0 34 -7 55 -16z"/>
<path d="M56 2655 c-15 -8 -35 -15 -42 -15 -11 0 -14 -24 -14 -119 l0 -118 88
-7 c48 -4 143 -9 212 -11 69 -2 130 -4 135 -6 6 -2 36 0 68 4 37 5 65 3 79 -4
11 -6 49 -11 84 -10 35 0 88 -5 116 -13 41 -10 66 -11 110 -3 49 9 66 7 125
-12 80 -25 100 -48 117 -131 11 -50 10 -63 -3 -85 l-16 -26 -145 4 c-354 12
-672 27 -680 32 -5 3 -53 10 -107 16 -54 5 -117 12 -141 15 l-42 6 0 -41 0
-41 83 0 c56 1 88 5 101 15 11 8 35 15 53 15 52 0 73 -43 73 -146 0 -60 -4
-85 -15 -94 -8 -7 -15 -19 -15 -26 0 -8 -3 -14 -8 -14 -4 0 -16 -16 -26 -35
-17 -30 -17 -40 -7 -87 21 -92 23 -115 11 -137 -16 -32 -40 -305 -33 -384 4
-46 2 -71 -5 -76 -10 -6 -16 -205 -11 -314 1 -15 -5 -35 -13 -45 -8 -9 -15
-28 -16 -41 -1 -28 -21 -54 -23 -30 -1 7 0 43 1 79 1 43 -4 75 -14 95 -9 17
-16 39 -16 50 l-1 20 -14 -20 c-32 -46 -60 -66 -83 -60 l-22 5 0 -430 0 -430
178 0 177 0 -2 132 c-2 73 -8 216 -14 318 -14 235 -14 256 -10 550 2 135 -1
315 -7 400 -12 209 -8 386 10 428 8 18 29 42 48 53 l32 20 22 -20 c27 -25 49
-26 107 -6 24 9 50 13 57 10 8 -3 20 -1 26 3 24 19 65 21 102 6 28 -12 57 -15
100 -11 57 4 82 12 139 45 46 26 154 72 169 72 9 0 16 4 16 9 0 5 33 11 74 13
60 3 81 8 108 28 23 17 50 25 91 28 31 3 60 8 62 12 3 5 -15 28 -39 53 -31 32
-47 42 -57 36 -25 -15 -36 -10 -65 33 -16 24 -37 50 -47 58 -24 20 -13 78 17
90 59 22 59 67 0 87 -37 12 -44 12 -85 -7 -24 -12 -56 -29 -71 -38 -23 -14
-30 -14 -55 -2 -39 19 -74 22 -101 8 -21 -11 -26 -8 -60 31 l-37 42 -50 -25
c-27 -14 -53 -26 -57 -26 -3 0 -22 25 -43 55 -20 30 -42 55 -50 55 -8 0 -29
-9 -47 -20 -46 -28 -58 -26 -100 21 -35 38 -41 41 -75 35 -112 -17 -125 -18
-136 -7 -15 15 -48 14 -92 -5 -36 -15 -38 -14 -72 12 -24 18 -33 32 -30 45 3
11 0 19 -8 19 -7 0 -15 7 -19 15 -7 19 -14 19 -50 0z"/>
<path d="M0 1857 l0 -124 43 7 c87 15 93 27 82 146 -8 83 -18 94 -91 94 l-34
0 0 -123z"/>
<path d="M5112 1188 c-1 -10 -11 -27 -23 -39 -18 -18 -19 -26 -11 -65 8 -37 6
-53 -13 -102 -27 -67 -31 -88 -21 -123 8 -27 52 -46 69 -30 4 4 6 90 4 192 -1
101 -3 176 -5 167z"/>
<path d="M4919 648 c-1 -7 -1 -17 0 -22 3 -13 -30 -46 -46 -46 -8 0 -13 -6
-10 -12 2 -7 10 -12 16 -10 7 1 9 -2 6 -8 -4 -6 1 -20 10 -30 25 -28 31 -92
11 -122 -15 -23 -20 -24 -59 -18 -23 5 -46 6 -51 3 -4 -3 -12 0 -16 7 -4 6
-16 10 -26 8 -18 -5 -18 -5 1 -13 11 -4 28 -15 38 -23 10 -9 36 -17 57 -18 22
-1 46 -7 53 -13 8 -6 17 -8 20 -4 7 6 8 4 26 -64 13 -49 55 -103 79 -103 27 1
62 36 68 69 4 17 11 34 15 37 5 3 9 67 9 143 0 111 -3 141 -15 151 -11 9 -12
16 -4 26 12 15 4 34 -16 34 -7 0 -15 5 -17 11 -8 23 -147 38 -149 17z"/>
</g>
</svg>