<?xml version="1.0" standalone="no"?>
<!DOCTYPE svg PUBLIC "-//W3C//DTD SVG 20010904//EN"
 "http://www.w3.org/TR/2001/REC-SVG-20010904/DTD/svg10.dtd">
<svg version="1.0" xmlns="http://www.w3.org/2000/svg"
 width="338.000000pt" height="338.000000pt" viewBox="0 0 338.000000 338.000000"
 preserveAspectRatio="xMidYMid meet">
<metadata>
Created by potrace 1.15, written by Peter Selinger 2001-2017
</metadata>
<g transform="translate(0.000000,338.000000) scale(0.100000,-0.100000)"
fill="#000000" stroke="none">
<path d="M1125 2969 c-126 -12 -237 -34 -405 -80 -163 -45 -443 -129 -448
-134 -2 -2 13 -7 34 -10 228 -38 359 -92 428 -178 39 -48 38 -86 -4 -174 -18
-38 -39 -84 -47 -103 l-15 -35 39 41 c65 67 165 82 227 33 34 -26 34 -65 1
-163 -27 -82 -31 -149 -10 -211 l13 -40 1 38 c2 87 58 141 177 172 135 35 219
11 289 -85 20 -28 41 -47 46 -44 6 3 21 3 35 0 31 -8 32 -49 3 -126 -25 -66
-22 -118 12 -210 21 -58 24 -62 27 -35 4 38 11 44 47 47 17 1 38 8 47 16 11 9
27 12 44 8 36 -9 18 -22 -35 -25 -10 -1 -11 -4 -3 -14 9 -10 3 -14 -26 -15
-46 -4 -51 -8 -26 -27 18 -14 18 -14 1 -15 -11 0 -35 -8 -54 -17 -31 -14 -33
-18 -17 -23 17 -6 15 -9 -11 -23 -53 -29 -71 -47 -57 -56 9 -5 1 -15 -25 -32
-40 -26 -57 -54 -26 -42 12 5 8 -5 -14 -30 -39 -45 -40 -47 -11 -39 20 5 19 2
-10 -34 -35 -42 -40 -56 -17 -48 11 5 8 -6 -10 -37 -29 -51 -32 -67 -9 -48 9
7 2 -9 -15 -36 -17 -27 -29 -55 -27 -62 3 -7 -1 -25 -9 -40 -17 -32 -20 -57
-6 -49 10 6 -21 -79 -46 -127 -8 -15 -10 -27 -4 -27 9 0 -19 -60 -60 -126 -10
-17 -17 -33 -14 -36 6 -6 -121 -135 -163 -166 -17 -12 -37 -22 -45 -22 -7 0
-17 -4 -22 -9 -6 -5 -58 -13 -117 -17 l-108 -7 -38 39 c-106 106 -60 321 107
509 24 26 27 33 11 20 -174 -135 -273 -336 -241 -491 20 -103 67 -150 177
-179 220 -57 442 67 601 335 34 58 89 168 123 245 123 278 208 395 290 395 17
0 20 -6 20 -47 0 -27 3 -65 6 -86 6 -32 4 -36 -10 -31 -28 11 -66 -4 -66 -26
0 -17 -7 -20 -52 -20 -29 0 -63 -3 -75 -6 -31 -8 -73 -108 -73 -173 0 -32 -7
-65 -20 -88 -14 -26 -16 -41 -10 -54 15 -26 12 -37 -10 -44 -11 -3 -20 -13
-20 -22 0 -19 -39 -52 -62 -53 -20 0 -35 -20 -16 -21 7 0 4 -4 -7 -9 l-20 -9
20 -1 c15 -1 11 -6 -15 -18 -35 -16 -35 -16 -8 -20 63 -8 141 33 203 107 22
26 29 47 36 113 8 64 16 92 40 129 l30 47 47 -13 c27 -6 59 -18 72 -25 33 -17
140 -103 140 -112 0 -4 13 -14 29 -23 45 -23 94 -101 101 -160 l5 -50 19 34
c17 33 17 41 1 117 l-6 29 25 -28 c14 -15 26 -38 26 -50 1 -21 1 -21 15 3 l14
25 15 -37 c9 -21 16 -52 16 -70 0 -25 3 -29 10 -18 14 22 12 97 -4 128 -8 15
-28 44 -44 65 -17 21 -32 43 -34 48 -2 6 -23 15 -47 20 -44 10 -105 51 -94 63
4 3 15 6 25 6 10 0 23 9 30 20 11 17 24 20 91 20 135 0 167 27 152 127 -8 57
-29 99 -108 221 -33 52 -56 97 -51 101 28 25 108 44 203 49 99 5 104 4 96 -14
-4 -11 -9 -37 -12 -59 l-5 -40 89 -35 c92 -37 153 -80 153 -110 0 -9 8 -28 19
-41 36 -47 44 -69 29 -86 -7 -9 -26 -22 -43 -30 -29 -14 -29 -14 23 -10 43 3
50 2 41 -10 -16 -18 -9 -23 18 -12 25 9 63 64 63 90 0 8 -11 26 -25 39 -19 18
-24 31 -20 50 4 20 -4 36 -40 77 -25 28 -45 54 -45 57 0 3 17 14 38 25 21 11
63 43 92 71 30 29 71 59 90 67 19 9 50 28 68 44 43 38 80 39 84 2 l3 -28 19
27 c25 38 15 75 -27 93 -26 11 -29 15 -14 20 10 4 28 0 42 -9 20 -13 25 -14
25 -3 0 21 -35 48 -72 57 l-33 8 35 1 c33 2 34 2 16 16 -28 21 -63 19 -97 -6
-23 -16 -29 -28 -29 -59 0 -50 -18 -69 -121 -124 l-87 -46 -6 35 c-6 30 -2 42
26 81 32 45 33 49 33 148 0 89 -3 108 -26 151 -15 30 -43 63 -70 82 -105 78
-169 144 -169 176 0 12 89 47 121 47 26 0 28 -2 23 -29 -5 -25 -3 -29 12 -27
10 2 19 7 21 13 6 18 106 -15 126 -41 21 -30 68 -42 98 -26 19 10 26 7 58 -24
38 -37 93 -56 106 -37 3 6 3 11 -2 10 -4 -1 -17 -1 -28 0 -18 1 -19 2 -2 12
27 16 20 26 -14 21 -37 -5 -79 29 -79 65 0 13 -3 22 -7 21 -5 -2 -26 10 -48
27 -22 16 -42 30 -44 32 -8 5 6 14 28 18 12 2 19 0 16 -6 -6 -8 8 -13 28 -10
4 0 7 -4 7 -10 0 -5 5 -7 11 -3 8 5 8 1 0 -14 -15 -27 10 -24 42 6 13 12 29
22 35 22 15 0 16 35 2 61 -6 10 -23 25 -38 33 -15 8 -55 35 -89 60 -69 52
-130 82 -186 90 -55 9 -87 28 -192 116 -105 88 -143 110 -230 135 -33 9 -80
23 -105 32 -24 8 -54 12 -66 9 -21 -6 -22 -4 -18 57 l4 62 -15 -47 c-15 -48
-27 -58 -41 -37 -9 16 -138 73 -255 114 -148 51 -333 66 -564 44z m963 -230
c18 -6 30 -15 27 -19 -3 -4 9 -13 27 -19 57 -20 180 -103 250 -170 63 -59 68
-66 49 -73 -12 -4 -38 -1 -62 7 -23 8 -53 15 -68 14 l-26 -1 25 -9 c19 -7 15
-8 -20 -5 l-45 5 52 -17 c64 -21 71 -28 38 -36 -14 -4 -23 -11 -20 -16 4 -6
-2 -13 -12 -16 -53 -17 -67 -25 -53 -34 10 -6 4 -12 -22 -23 -44 -19 -57 -37
-27 -37 22 0 22 -1 -7 -32 -17 -18 -37 -42 -45 -52 -13 -18 -12 -19 9 -14 24
7 26 4 13 -20 -4 -9 -12 -35 -15 -56 -7 -36 -6 -38 8 -27 14 12 16 8 16 -35 1
-45 2 -48 15 -30 14 18 15 17 15 -22 0 -23 -4 -42 -8 -42 -5 0 -46 13 -93 29
-152 51 -194 82 -219 157 -15 46 -7 78 76 306 40 111 64 193 64 219 0 33 3 40
15 35 51 -21 51 -21 31 2 -11 12 -26 22 -35 22 -14 0 -14 2 -1 10 18 12 11 12
48 -1z"/>
</g>
</svg>